<svg xmlns="http://www.w3.org/2000/svg" xmlns:xlink="http://www.w3.org/1999/xlink" width="29.737" height="27.627" viewBox="0 0 29.737 27.627">
  <defs>
    <clipPath id="clip-path">
      <rect id="Rectangle_85" data-name="Rectangle 85" width="29.737" height="27.627" fill="#fe00c2"/>
    </clipPath>
  </defs>
  <g id="Groupe_92" data-name="Groupe 92" transform="translate(29.737 27.627) rotate(180)">
    <g id="Groupe_90" data-name="Groupe 90" clip-path="url(#clip-path)">
      <path id="Tracé_804" data-name="Tracé 804" d="M153.643,14.722c1.171,0,2.308,0,3.445,0s1.541.408,1.541,1.536q0,4.932,0,9.864c0,1.072-.438,1.5-1.523,1.5q-4.874,0-9.748,0c-1.1,0-1.519-.415-1.518-1.5,0-3.849-.05-7.7.039-11.546A18.577,18.577,0,0,1,148.284,5.2,10.087,10.087,0,0,1,157.167,0c.994-.023,1.458.446,1.461,1.445q.007,2.263,0,4.526a1.243,1.243,0,0,1-1.311,1.43,2.923,2.923,0,0,0-2.511,1.615,10.879,10.879,0,0,0-1.158,4.568c-.032.343,0,.692,0,1.137" transform="translate(-128.894 0)" fill="#fe00c2"/>
      <path id="Tracé_805" data-name="Tracé 805" d="M7.712,14.779c1.252,0,2.428,0,3.6,0,1.062,0,1.48.416,1.481,1.469q0,4.99,0,9.979c0,1.01-.442,1.453-1.447,1.454q-4.961.005-9.921,0A1.243,1.243,0,0,1,.011,26.308c0-3.848-.041-7.7.036-11.545A19.893,19.893,0,0,1,1.855,6.384,10.313,10.313,0,0,1,8.928.37a14.436,14.436,0,0,1,2.583-.3A1.161,1.161,0,0,1,12.793,1.32q.021,2.437,0,4.874A1.152,1.152,0,0,1,11.62,7.445,3.254,3.254,0,0,0,8.6,9.761a14.252,14.252,0,0,0-.888,5.017" transform="translate(0 -0.058)" fill="#fe00c2"/>
    </g>
  </g>
</svg>
