<svg xmlns="http://www.w3.org/2000/svg" xmlns:xlink="http://www.w3.org/1999/xlink" width="219.701" height="198.854" viewBox="0 0 219.701 198.854">
  <defs>
    <filter id="Icon_ionic-ios-arrow-down" x="0" y="0" width="219.701" height="198.854" filterUnits="userSpaceOnUse">
      <feOffset input="SourceAlpha"/>
      <feGaussianBlur stdDeviation="25.5" result="blur"/>
      <feFlood flood-opacity="0.341"/>
      <feComposite operator="in" in2="blur"/>
      <feComposite in="SourceGraphic"/>
    </filter>
  </defs>
  <g transform="matrix(1, 0, 0, 1, 0, 0)" filter="url(#Icon_ionic-ios-arrow-down)">
    <g id="Icon_ionic-ios-arrow-down-2" data-name="Icon ionic-ios-arrow-down" transform="translate(79.31 74.25)">
      <path d="M 30.57050132751465 43.60086822509766 C 28.57058906555176 43.60091018676758 26.65692329406738 42.8577880859375 25.1820011138916 41.50838851928711 L 25.10998916625977 41.44250106811523 L 25.04090118408203 41.37355422973633 L 4.024123191833496 20.40028953552246 C 2.516156435012817 18.8923225402832 1.687500834465027 16.88660049438477 1.687500834465027 14.74928951263428 C 1.687500834465027 12.61196708679199 2.516156435012817 10.60623359680176 4.020823001861572 9.101567268371582 C 5.530178546905518 7.592222690582275 7.535256385803223 6.761000156402588 9.666723251342773 6.761000156402588 C 11.80220508575439 6.761000156402588 13.80495262145996 7.594261646270752 15.30792617797852 9.107742309570312 L 30.55227279663086 24.34008979797363 L 45.79203414916992 9.088322639465332 C 47.30263519287109 7.577722549438477 49.30772399902344 6.74648904800415 51.43918991088867 6.74648904800415 C 53.57976913452148 6.74648904800415 55.5870246887207 7.583777904510498 57.09119033813477 9.104133605957031 C 58.58256912231445 10.61154460906982 59.40392303466797 12.61122226715088 59.40392303466797 14.73477840423584 C 59.40392303466797 16.85835647583008 58.58256912231445 18.85803413391113 57.09116744995117 20.36544418334961 L 57.08326721191406 20.37343406677246 L 57.07532119750977 20.38138961791992 L 36.2036018371582 41.26763534545898 C 34.69864654541016 42.77257919311523 32.69850158691406 43.60081100463867 30.57050132751465 43.60086822509766 Z" stroke="none"/>
      <path d="M 30.57038879394531 39.10086441040039 C 31.45732116699219 39.1008415222168 32.34380340576172 38.76345443725586 33.0205078125 38.08675384521484 L 53.89224624633789 17.20050621032715 C 55.24115371704102 15.83710670471191 55.24115371704102 13.63244438171387 53.89224624633789 12.26904487609863 C 52.54333877563477 10.90562725067139 50.33868026733398 10.90563297271729 48.97527694702148 12.26904487609863 L 30.55476951599121 30.70404434204102 L 12.11976909637451 12.2835521697998 C 10.77087497711182 10.92013549804688 8.566214561462402 10.92013740539551 7.202799797058105 12.2835521697998 C 6.52110767364502 12.96524429321289 6.187507629394531 13.86450672149658 6.187507629394531 14.74929046630859 C 6.187507629394531 15.63405990600586 6.52110767364502 16.53332138061523 7.202799797058105 17.21501350402832 L 28.21958541870117 38.18827438354492 C 28.88397598266602 38.7961311340332 29.72738075256348 39.10088729858398 30.57038879394531 39.10086441040039 M 30.57070732116699 48.10086059570312 C 30.57053756713867 48.10086059570312 30.57053756713867 48.10086059570312 30.57053756713867 48.10086059570312 C 27.44350814819336 48.10096740722656 24.45096969604492 46.93879699707031 22.14435386657715 44.82843017578125 L 0.8454461097717285 23.58556747436523 C -1.515753865242004 21.2243824005127 -2.812492370605469 18.08859825134277 -2.812492370605469 14.74929046630859 C -2.812492370605469 11.40996742248535 -1.515753865242004 8.27418327331543 0.8388461470603943 5.919598579406738 C 3.198122978210449 3.560306310653687 6.333261489868164 2.260998487472534 9.666738510131836 2.260998487472534 C 13.01843070983887 2.260998487472534 16.16176986694336 3.572444677352905 18.51770782470703 5.953752517700195 L 30.54972457885742 17.97616195678711 L 42.60881423950195 5.907583236694336 C 44.97060012817383 3.545798540115356 48.10573959350586 2.246490955352783 51.43920135498047 2.246490955352783 C 54.79090881347656 2.246490955352783 57.93424606323242 3.557937145233154 60.29018402099609 5.939244747161865 C 65.08847808837891 10.78909111022949 65.08847808837891 18.68045997619629 60.29012298583984 23.53036689758301 L 39.38667678833008 44.44850540161133 C 37.03069305419922 46.80448913574219 33.90050888061523 48.10079956054688 30.57053756713867 48.10086059570312 L 30.57070732116699 48.10086059570312 Z" stroke="none" fill="#f9d401"/>
    </g>
  </g>
</svg>
