<svg xmlns="http://www.w3.org/2000/svg" width="30" height="30" viewBox="0 0 30 30">
  <g id="Groupe_82" data-name="Groupe 82" transform="translate(-0.31)">
    <path id="Icon_awesome-twitter" data-name="Icon awesome-twitter" d="M12.668,6.239c.009.125.009.251.009.376a8.177,8.177,0,0,1-8.233,8.233A8.177,8.177,0,0,1,0,13.549a5.986,5.986,0,0,0,.7.036,5.8,5.8,0,0,0,3.593-1.236,2.9,2.9,0,0,1-2.706-2.007,3.649,3.649,0,0,0,.547.045,3.061,3.061,0,0,0,.762-.1,2.894,2.894,0,0,1-2.32-2.84V7.412a2.914,2.914,0,0,0,1.308.367,2.9,2.9,0,0,1-.9-3.87A8.225,8.225,0,0,0,6.952,6.937a3.267,3.267,0,0,1-.072-.663,2.9,2.9,0,0,1,5.008-1.98,5.7,5.7,0,0,0,1.837-.7A2.886,2.886,0,0,1,12.453,5.19a5.8,5.8,0,0,0,1.666-.448,6.22,6.22,0,0,1-1.451,1.5Z" transform="translate(7.81 6.771)"/>
  </g>
</svg>
