<svg xmlns="http://www.w3.org/2000/svg" xmlns:xlink="http://www.w3.org/1999/xlink" width="511.72" height="478.889" viewBox="0 0 511.72 478.889">
  <defs>
    <linearGradient id="linear-gradient" x1="0.5" x2="0.5" y2="1" gradientUnits="objectBoundingBox">
      <stop offset="0" stop-color="#00c2ff"/>
      <stop offset="1" stop-color="#fe00c2"/>
    </linearGradient>
    <clipPath id="clip-path">
      <rect id="Rectangle_58" data-name="Rectangle 58" width="511.72" height="478.889" fill="url(#linear-gradient)"/>
    </clipPath>
  </defs>
  <g id="Groupe_61" data-name="Groupe 61" opacity="0.3">
    <g id="Groupe_60" data-name="Groupe 60" clip-path="url(#clip-path)">
      <path id="Tracé_759" data-name="Tracé 759" d="M570.475,352.735c-2.568,3.2-5.534,4.5-9.592,2.332,3.4-4.476,6.145-5.319,9.592-3.227Z" transform="translate(-58.754 -36.742)" fill="url(#linear-gradient)"/>
      <path id="Tracé_760" data-name="Tracé 760" d="M284.671,84.45c1.1-3.342,7.09-5.522,9.909-3.852,5.68,3.363,9.375,1.439,10.365-5.271.147-1,.833-2.4,1.61-2.681a3.8,3.8,0,0,1,3.139.791c3.892,3.356,4.782,3.174,5.933-2.024.68-3.067,1.963-3.341,4.286-1.61,4.515,3.364,6.961,2.9,9.891-1.869.826-1.344,1.555-2.747,3.063-5.428,1.159,2.653,2.042,4.059,2.388,5.587.808,3.576,3.732,4.918,6.371,2.4,2.326-2.217,4.315-3.147,7.537-1.791.949.4,3.619-1.183,4.212-2.457,1.558-3.349,2.164-7.132,3.614-10.543,1.185-2.787,3.04-5.288,4.6-7.917l1.822.739a64.884,64.884,0,0,1-.855,6.653c-.967,4.211-2.465,8.322-3.128,12.571a7.567,7.567,0,0,0,1.666,5.676c1.905,1.982,3.506.219,5.033-1.518,2.261-2.575,3.98-1.953,4.872,1.457,1.913,7.314,4.719,8.951,11.913,6.787,3.1-.933,6.012-1.888,8.35,1.59.43.64,2.056.477,3.481.752L390.4,88.243c1.165.435,1.883,1,2.435.863,4.2-1.009,7.565-1.459,5.192,4.822-.3.807,1.286,2.471,2.2,3.568,1.812,2.174,3.509,4.585,5.758,6.194,1.284.919,3.568.395,5.388.631.931.122,2.41.266,2.612.794.338.882.235,2.671-.35,3.052-4.238,2.756-3.2,6.7-2.33,10.362.729,3.058,2.076,5.814,6.32,5.535,1.916-.125,3.919,1.09,5.884,1.7-.923,2.571-1.548,5.308-2.863,7.66-1.032,1.845-4.367,3.477-4.137,4.742.581,3.2,2.489,6.193,4.095,9.145.5.914,1.733,1.426,3.2,2.56-2.027,1.015-3.773,1.534-5.029,2.62-1.219,1.055-2.7,2.722-2.647,4.064.05,1.248,1.9,2.5,3.09,3.607,1.28,1.2,2.709,2.237,4.073,3.346-1.277.862-2.6,1.669-3.824,2.6-2.534,1.921-5.016,3.908-7.535,5.88,3.466,4.128,5.975,7.445,8.882,10.366a4.354,4.354,0,0,0,4.155.492c2.422-1.614,5.02-3.5,6.47-5.927,3.121-5.218,7.919-7.792,13.1-10.2,5.907-2.749,11.6-5.958,17.533-8.649a23.83,23.83,0,0,1,7.72-1.842c3.288-.279,6.922-.4,7.116,4.478.18,4.544-2.948,8.918-6.867,8.226-5.361-.947-9.08,2.141-13.442,3.727-3.764,1.368-7.617,2.542-11.265,4.172a87.4,87.4,0,0,0-12.565,6.484c-4.368,2.88-8.634,9.2-10.627,13.972a28.505,28.505,0,0,1-1.944,3.515,10.173,10.173,0,0,0-1.709,4.656l9.683-1.218c-1.63,3.166.418,4.124,3.045,4.027,3.38-.124,6.752-.654,10.112-1.116,3.816-.526,7.626-1.637,11.421-1.567,1.885.035,4.968,1.88,5.288,3.38.425,1.995-.831,4.9-2.328,6.525-.772.839-3.957.326-5.485-.557-5.653-3.265-5.565-3.418-9.925,1.748-2.61,3.093-5.68,3.33-9.922.605-7.066-4.541-13.757-.265-17.308-.324,4.29-2.585,8.592,3.326,14.075,5.767q-.154.885-.31,1.77c-3.8.329-7.924,1.744-11.331.738-5.217-1.541-7.392,1.242-9.884,4.442-.534.688-.987,1.439-1.671,2.443,3.695,2.56,6.057,1.36,8.164-1.846,2.56-3.9,4.2-3.8,7.226.254l-5.06,2.723,3.274,3.429-.143,1.3-6.689.306c1.477,3.77.89,10.177,8.844,10.3.434.007,1.436,2.536,1.111,3.551-.555,1.735-1.953,3.2-2.92,4.665,7.566,0,14.887.112,22.2-.039,4.765-.1,9.52-.663,14.285-.843a11.587,11.587,0,0,1,4.738.765,3.5,3.5,0,0,1,1.939,2.568,3.365,3.365,0,0,1-2.1,2.467,30.337,30.337,0,0,1-8.377.6c-10.77-1.163-21.437-1.124-32.14,2.227l5.41,1.137c-.484,3.86,2.59,6.494,8.167,7.286-.369,2-.84,3.963-1.076,5.955-.462,3.878-.7,7.785-1.277,11.644a2.7,2.7,0,0,1-2.266,1.318c-3.551-1.294-4.021,1.117-4.745,3.523-1.561,5.194-7.186,9.781-12.494,10.288v2.85l-3.6-1.529-.9.927a52.863,52.863,0,0,0,4.442,4.759c1.221,1.041,3.131,1.346,4.186,2.484.864.932.92,2.612,1.334,3.961a17.855,17.855,0,0,1-3.868.42,20.258,20.258,0,0,1-3.9-1.175q-.42.78-.84,1.56l7.112,4.519c-3.029,1.383-6.474,1.887-7.618,3.782-1.124,1.865.086,5.138.265,7.694-2.017,1.524-4.42,2.932-6.284,4.859-1.98,2.047-2.027,4.335.253,6.662a39.13,39.13,0,0,1,5.4,7.1c.722,1.189.556,2.917.792,4.4-1.423-.312-3.073-.269-4.221-1.007a84.037,84.037,0,0,1-6.75-5.285l-5.779,3.5a9.623,9.623,0,0,1,.313,1.306c.192,2.03.354,4.063.526,6.094-1.669-.655-3.529-1.031-4.97-2.02-3.85-2.642-8.789-1.525-11.341,2.873-.79,1.362-1.38,2.839-2.045,4.226-.618-.2-1.012-.206-1.143-.393-4.109-5.879-4.1-5.867-10.909-2.466-2.248,1.123-4.55,2.139-8.239,3.865,2.3,1.575,3.723,3.044,5.452,3.653,7.016,2.47,8.728,9.282,3.1,14.048a7.891,7.891,0,0,1-6.045,1.4c-1.367-.307-2.713-2.583-3.241-4.243-.556-1.754-.244-3.826-.109-5.746.355-5.041-7.676-19.011-12.423-20.615-2.656-.9-5.687-.684-9.046-1.021l4.594-3.053c-2.924-1.637-5.164-3.473-7.716-4.175-3.129-.861-6.338-.553-9.168-3.142-1.867-1.708-4.773-.6-5.518,2.353-.856,3.391-2.578,4.021-5.525,2.512-2.394-1.226-4.07-1.421-6.507,1.049-2.524,2.557-6.524,2.085-10.15-.85l5.852-1.089-6.74-7.494c-3.708,4.473-3.513,8.961-1.618,13.294,3.012,6.882,2.3,13.522.2,20.464-1.054,3.482-.82,7.353-1.178,11.149-.642.677-2.231,1.652-2.7,3.011a16.841,16.841,0,0,0-.62,6.2c.6,11.422-2.076,22.519-3.2,33.767-.7,7,1.429,13.183,5.047,19.037a51.9,51.9,0,0,1,2.6,5.513l-1.479.692-3.581-6.047c-.377,2.474-.885,3.958-.772,5.393.4,4.994,1,9.97,1.537,14.952.127,1.182.661,2.474.341,3.511-.389,1.256-1.483,2.294-2.273,3.427-1.127-.8-2.27-1.573-3.368-2.408a1.28,1.28,0,0,1-.3-.827c-.665-7.04-1.4-14.076-1.947-21.126-.588-7.542-.592-15.155-1.625-22.63-.83-6.012-3.61-11.8-4.08-17.8-.548-7,.466-14.124.824-21.193a24.467,24.467,0,0,1,.4-3.879c.283-1.32.913-2.563,1.21-3.881a8.131,8.131,0,0,0,.088-2.767c-.318-2.464-.748-4.913-1.132-7.368l1.054-.5q1.427,1.891,2.857,3.781l1.053.024c0-2.225.073-4.453-.017-6.675-.142-3.5-.545-7-.554-10.508-.007-2.808.773-5.649.538-8.419-.278-3.3-3.164-3.754-5.72-3.394-1.229.173-3.239,1.739-3.19,2.574.1,1.618,1.4,3.163,2.32,4.973H266.09c-2.316,4.131-4.445,7.852-6.481,11.624a3.687,3.687,0,0,0-.608,2.534c3.061,7.86.129,16.016,1.34,23.92.281,1.835,1.859,3.472,3.111,5.678l-3.673-.632c-.568,4.966-.988,9.932-1.773,14.84-.295,1.841-1.436,3.546-2.192,5.312l-2.008-.591,3.4-21.582-1.489-.64c-1.252,1.834-2.919,3.512-3.684,5.532-2.679,7.067-4.915,14.3-7.609,21.363-.837,2.194-.62,6.709-4.263,5.46-3.626-1.242-.519-4.579-.018-6.914.369-1.714,1.509-3.251,2.023-4.952a9.433,9.433,0,0,0,.055-2.9c-2.315,1.933-4.929,3.148-5.892,5.154a24.843,24.843,0,0,0-1.843,9.1c-.614,10.219-.982,20.453-1.419,30.682-.248,5.806-.448,11.613-.662,17.421-.032.893.3,1.981-.09,2.648-1.093,1.852-2.482,3.531-3.753,5.277-.931-1.662-2.556-3.29-2.636-4.992-.128-2.727.992-5.486,1.188-8.26.543-7.693.954-15.4,1.278-23.1.2-4.844.394-9.712.146-14.546a90.836,90.836,0,0,0-1.7-14.39c-1.311-6.1-3.224-12.076-5-18.069-.254-.859-1.2-1.514-1.825-2.263-.763.772-2.169,1.538-2.175,2.316a40.948,40.948,0,0,0,.7,9.421c1.271,5.564,3.029,11.017,4.63,16.683-4.864-.278-6.853-2.343-7.9-7.7-1.416-7.23-3.026-14.43-4.192-21.7-1.387-8.653-2.784-17.34-3.424-26.067-.419-5.727.547-11.549.759-17.334.035-.932-.628-1.89-.969-2.836-.632.826-1.732,1.6-1.825,2.487-.989,9.473-1.828,18.964-2.677,28.452-.065.726-.179,1.9.2,2.146,4.9,3.235-.152,6.427-.073,9.612.014.572-1.487,1.652-2.273,1.637a2.822,2.822,0,0,1-2.034-1.862,36.05,36.05,0,0,1-.23-7.286c.782-10.465,3.055-20.9.6-32.141-1.395.623-2.416,1.141-3.483,1.541-1.384.518-2.8.944-4.209,1.409.149-1.287.232-2.587.476-3.856a3.132,3.132,0,0,0,.269-2.08,37.431,37.431,0,0,0-3.308,2.371c-4.077,3.617-6.518,3.371-9.688-1.168-2-2.861-4.323-3.372-7.211-1.336-1.49,1.051-3.054,2-5.671,3.7,1.763-3.7,2.923-6.139,4.563-9.584-2.957.944-5.006,2-7.137,2.2a142.46,142.46,0,0,1-16.581.816c-1.568-.033-3.1-2.038-4.8-3.255l19.069-5.286q-.137-.927-.272-1.852c-4.725-.8-9.439-1.1-14.256.39-8.828,2.735-17.859,4.912-26.481,8.179-8,3.031-15.553,7.225-23.347,10.811a34.945,34.945,0,0,1-7.107,2.542,3.787,3.787,0,0,1-3.325-1.325,3.707,3.707,0,0,1,.89-3.431,18.763,18.763,0,0,1,5.349-3.078c9.832-3.875,19.794-7.431,29.549-11.486,7.375-3.064,14.542-6.639,21.705-10.183.914-.452,1.163-2.142,1.861-3.162a21.058,21.058,0,0,0,3.224-5.782,33.314,33.314,0,0,0-4.373,2.411c-2.016,1.522-3.694,3.535-5.816,4.854-.953.592-2.637.007-3.988-.044.413-1.162.5-2.69,1.306-3.41a65.989,65.989,0,0,1,5.858-4.06c7.008-4.991,13.618-10.388,18.4-17.612l-.767-1.2c-4.088,2.123-8.2,4.19-12.248,6.393-1.69.92-3.143,2.294-4.867,3.127-.712.344-1.85-.2-2.794-.333a7.719,7.719,0,0,1,.831-2.742,7.584,7.584,0,0,1,2.607-1.633q9.951-4.93,19.911-9.806c-3.309-7.9-9.425-8.959-18.243-3.658a14.506,14.506,0,0,1-7.419,2.242c-12.933-.4-24.84,3.634-36.79,7.724-3.045,1.043-6.268,1.56-9.4,2.341-2.291.57-4.6,1.107-6.852,1.794-1.417.432-2.8,1.661-4.123,1.563-2.091-.154-4.124-1.121-6.181-1.744,1.51-1.337,2.813-3.315,4.572-3.883,4.346-1.4,8.926-2.056,13.355-3.231,1.433-.38,2.687-1.44,4.579-2.5l-4.679-3.228c3.857-.589,6.469-.815,9.661.181,5.662,1.766,11.493.532,16.926-1.97,1.757-.809,3.487-1.679,4.905-2.363-1.789-1.166-3.67-2.315-5.461-3.592-1.087-.775-1.992-1.8-3.052-2.62-6.894-5.328-10.075-4.517-13.64,3.422-.231.515-.6.966-1.663,2.626,0-3.487-.32-5.759.077-7.9.557-3.008.044-4.462-3.393-4.609-1.78-.076-3.508-1.342-5.031-2.988-.555.117-1.363.039-1.627.38-3.229,4.181-7.483,1.711-11.3,1.691a3.3,3.3,0,0,1-2.515-1.938c-.587-3.707-2.879-3.255-5.308-2.45-3.842,1.275-7.641,2.68-12.314,4.333l4.628-4.346c-.464-.581-.786-1.347-1.353-1.641-4.978-2.577-6.818-5.981-4.332-11.606.71-1.606-.87-4.223-1.585-7.13,1.351-1.532,3.037-5.012,5.728-6.183,6.393-2.781,2.425-9.472,6.539-13.363a30.136,30.136,0,0,0-3.838-.829c-8.032-.551-16.083-.891-24.1-1.616-3.374-.305-4.582,1.769-5.02,4.119-1.047,5.62-2.953,8.425-6.889,8.962-6.223.849-8.7-.792-11.341-6.848a7.7,7.7,0,0,0-3.574-3.26,10.655,10.655,0,0,1-5.494-10.4c.363-4.452,3.332-8.3,7.585-8.6,4.851-.347,9.76.154,14.644.217,4.541.058,9.083-.023,13.623.064a24.846,24.846,0,0,1,3.928.649q13.176,2.42,26.351,4.848l.63-1.376-3.4-6.236c5.226-.4,7.175-3.457,8.155-7.913.348-1.581,2.815-2.7,4.7-4.363l-6.916-5.253.938-1.125c3.977.418,7.978,1.251,11.915,1.015,1.266-.076,3.273-2.923,3.355-4.581.19-3.8-1.258-7.727-.789-11.446a16.2,16.2,0,0,1,4.081-9.049c3.083-3.023,3.557-6.662-.781-8.139-4.857-1.652-10.191-1.847-15.238-3.016-2.092-.484-4.013-1.79-5.94-2.853-.609-.337-.888-1.457-1.478-1.613-8.377-2.218-7.937-10.143-10.361-16.1-2.6-6.385-.66-12.033,1.782-18.454,2.478-6.517,7.354-8.067,12.017-11.034,3.581-2.279,6.831-5.081,10.667-7.982.777,1.653,1.609,3.418,1.985,4.218,3.5.695,6.836.44,8.849,1.95,3.947,2.96,7.661,4.219,11.692,1.883l6.283,8.931c4.259-4.9,4.2-4.854,8.212.223.833,1.055,2.23,1.663,3.367,2.478q.71-.964,1.42-1.93c-4.012-3.062-7.9-6.306-12.082-9.119-2.679-1.8-5.287-4.6-9.277-2.756-.288.133-2.528-2.651-2.314-2.944,2.488-3.389-.361-4.371-2.352-5.746-2.07-1.431-4.47-2.542-6.131-4.342-.883-.955-.5-3.073-.7-4.668,1.6.149,3.643-.281,4.723.546,4.572,3.5,8.82,7.42,13.279,11.072,1.054.863,2.468,1.284,4.726,2.412-1.057-2.8-1.671-4.431-2.705-7.173l4.226,2.533q-.122-.567-.245-1.132c2.607-.655,5.5-2.312,7.735-1.669,1.986.572,4.493,3.662,4.541,5.694.088,3.731-2.265,6.707-7.262,6.371q-.034.7-.065,1.4l9.173,7.647,4.064-4.361-3.977-1.666,1.5-1.958,3.734,1.092c1.321-4.66,2.648-9.342,4.316-15.222,1.844,3.9,2.925,6.654,4.386,9.187,3.021,5.237,11.819,5.964,15.778,1.39a3.6,3.6,0,0,0,.94-1.962c.411-8.948.835-17.9,1-26.853.023-1.265-1.4-2.519-2.008-3.847-.469-1.029-1.247-2.355-.944-3.215a69.979,69.979,0,0,1,3.428-7.24c.375,2.437,1.076,5.479,1.267,8.552.323,5.2.049,10.452.537,15.634a122.526,122.526,0,0,0,2.664,16.453c.3,1.262,2.667,2.342,4.292,2.938,8.229,3.018,14.579.274,16.105-6.566.594-2.664,2.047-5.042,6.314-4.567-.437,3.384-.971,6.679-1.231,9.995-.094,1.2.091,3.051.833,3.518.843.53,2.606.159,3.7-.373,3.88-1.891,5.952-4.89,4.854-9.415q-1.211-4.989-2.491-9.961c-1.145-4.43-.015-8.225,2.3-10.684-.869-4.837-1.624-9.033-2.378-13.228l.719-.139a69.183,69.183,0,0,0,3.866,8.616c.6,1,2.629,1.521,4.027,1.56a59.672,59.672,0,0,0,7.542-.7c1.531-4.967,8.174-9.585,3.88-17.147l4.7,3.5c-3.148,4.232-2.04,8.576-1.46,12.889a27,27,0,0,1,.545,6.556c-.268,2.305.184,3.425,2.588,3.5,4.893.152,9.785.3,14.674.534,4.373.209,7.888-.982,10.041-5.18.5-.98,2.132-2.346,2.709-2.126,1.192.452,2.742,1.761,2.882,2.876.64,5.11,4.01,5.226,7.829,4.766a4.518,4.518,0,0,0,2.078-.726c1.988-1.459,2.6-10.972.538-12.291-3.854-2.469-4.7-6.017-3.936-9.971.272-1.414,2.126-2.523,3.259-3.771.961,1.28,2.694,2.526,2.754,3.848.347,7.657,5.72,18.8,12.2,24.064M243.815,400.082c2.5-1.422,2.273-3.756,1.646-6.335-1-4.134-1.875-8.054-.233-12.534,1.307-3.567,1.081-7.875.708-11.774-.117-1.225-3.033-3.209-4.469-3.05a11.236,11.236,0,0,0-6.778,3.261c-.884,1.007-.283,5.136.815,5.739,4.171,2.295,4.438,5.861,3.975,9.58-.7,5.634-.62,10.875,4.336,15.113M35.805,223.423l.435-1.6c.961.143,1.916.354,2.882.42,6.877.469,12.441,5.816,19.8,4.978,3.908-.445,7.965.535,11.961.7a33.6,33.6,0,0,0,4.947-.5q-.009-.606-.02-1.209L27.24,218.684c1.275,6.534,7.6,8.945,15.251,6.354l-6.687-1.615M218.828,379.344l1.91-.724c-.6-10.224-.688-20.483-2.675-31.066-5.551,2.974-5.7,3.194-4.614,7.568,1.281,5.137,2.652,10.253,3.983,15.378-1.487,1.832-2.527,3.967-2.3,5.956.125,1.09,2.393,1.933,3.7,2.888m60.845-1.66-1.443-.307c-.782,2.338-1.566,4.674-2.448,7.308l5,1.207c-.432-3.179-.772-5.694-1.113-8.208m-52.7,1.449,2.424.453,1.19-6.889a11.52,11.52,0,0,0-2.552-.048c-.487,2.131-.745,4.314-1.062,6.484" transform="translate(-0.804 -5.006)" fill="url(#linear-gradient)"/>
      <path id="Tracé_761" data-name="Tracé 761" d="M67.21,214.633c-.051,9.07-3.673,11.748-10.979,12.136-6.58.352-11.157-4.275-11.251-10.658-.1-7.021,4.446-12.2,10.8-12.291,5.99-.088,11.333,4.967,11.431,10.813" transform="translate(-4.711 -21.351)" fill="url(#linear-gradient)"/>
      <path id="Tracé_762" data-name="Tracé 762" d="M7.576,272.729c5.563,0,9.221,3.221,9.176,8.071a8.663,8.663,0,0,1-8.672,8.375c-4.474.086-8.074-3.831-8.08-8.793a7.815,7.815,0,0,1,7.576-7.653" transform="translate(0 -28.569)" fill="url(#linear-gradient)"/>
      <path id="Tracé_763" data-name="Tracé 763" d="M207.516,74.923c-.657.412-1.695,1.554-2.844,1.681-2.5.276-9.625-6.047-9.645-8.552a3.552,3.552,0,0,1,1.8-2.778c3.794-1.177,10.92,4.792,10.688,9.649" transform="translate(-20.43 -6.822)" fill="url(#linear-gradient)"/>
      <path id="Tracé_764" data-name="Tracé 764" d="M10.462,212.656a13.767,13.767,0,0,1-1.838-2.881c-.384-1.132-.831-2.785-.3-3.551A4.932,4.932,0,0,1,11.9,204.3c.882.014,1.979,1.5,2.547,2.568a15.966,15.966,0,0,1,1.628,4.723c.274,1.581.547,3.475-.09,4.79-.416.857-2.858,1.642-3.685,1.184-1.374-.762-2.181-2.549-3.226-3.9l1.389-1" transform="translate(-0.847 -21.401)" fill="url(#linear-gradient)"/>
      <path id="Tracé_765" data-name="Tracé 765" d="M48.359,199.613c-1.75,1.077-3.7,3.228-5.2,2.947a6.789,6.789,0,0,1-4.313-4.386c-.629-2.807,1.947-4.5,4.444-4.116,1.831.28,3.416,2.17,5.111,3.342q-.023,1.107-.044,2.213" transform="translate(-4.059 -20.323)" fill="url(#linear-gradient)"/>
      <path id="Tracé_766" data-name="Tracé 766" d="M339.793,14.718c-.733,1.8-.977,3.725-2.062,4.8a58.511,58.511,0,0,1-8.085,6.5c-.622.427-2.436-.047-3.052-.709a3.111,3.111,0,0,1,.134-2.953,9.321,9.321,0,0,1,3.147-2.391c2.968-1.652,6-3.188,9.918-5.25" transform="translate(-34.179 -1.542)" fill="url(#linear-gradient)"/>
      <path id="Tracé_767" data-name="Tracé 767" d="M509.837,359.1c2.568,2.9,4.408,4.59,5.588,6.66.205.361-3.1,3.559-3.537,3.3a13.478,13.478,0,0,1-4.8-4.739c-.395-.694,1.288-2.573,2.746-5.226" transform="translate(-53.113 -37.617)" fill="url(#linear-gradient)"/>
      <path id="Tracé_768" data-name="Tracé 768" d="M473.875,72.837l-7.414,11.038c-2.036-4.862-1.3-8.149,1.036-10.737,1.109-1.227,3.416-1.372,5.181-2.006l1.2,1.7" transform="translate(-48.739 -7.451)" fill="url(#linear-gradient)"/>
      <path id="Tracé_769" data-name="Tracé 769" d="M492.161,220.082c-2.056,3.363-6.632,4.771-9.518,2.864a4.207,4.207,0,0,1-1.749-2.794c-.045-.669,1.131-1.739,1.983-2.091,3.521-1.457,6.605-.573,9.285,2.021" transform="translate(-50.375 -22.769)" fill="url(#linear-gradient)"/>
      <path id="Tracé_770" data-name="Tracé 770" d="M533.649,190.908c4.228-2.029,8.161-4.946,13.089-1.713-3.2,4.993-9.285,5.816-13.089,1.713" transform="translate(-55.901 -19.667)" fill="url(#linear-gradient)"/>
      <path id="Tracé_771" data-name="Tracé 771" d="M421.592,407.472c4.463-1.119,8.916-2.283,13.4-3.293.491-.111,1.733.789,1.684,1.007a4.016,4.016,0,0,1-1.235,2.44c-4.446,2.735-9.058,2.712-13.852-.154" transform="translate(-44.163 -42.338)" fill="url(#linear-gradient)"/>
      <path id="Tracé_772" data-name="Tracé 772" d="M238.854,33.684c1.91,2.4,3.948,4.721,5.7,7.237,1.931,2.776.158,4.718-2.009,6.232a2.3,2.3,0,0,1-2.226-.454c-.487-.744-.871-2.278-.458-2.763,1.833-2.157.946-3.462-.637-5.279-1.017-1.167-1.051-3.191-1.525-4.83l1.158-.143" transform="translate(-24.899 -3.529)" fill="url(#linear-gradient)"/>
      <path id="Tracé_773" data-name="Tracé 773" d="M544.072,10.058c1.441,2.3,3.132,3.962,2.8,4.671-.892,1.9-2.651,3.384-4.066,5.034-1.278-1.445-3.7-3.029-3.548-4.3.194-1.606,2.49-2.958,4.815-5.4" transform="translate(-56.488 -1.054)" fill="url(#linear-gradient)"/>
      <path id="Tracé_774" data-name="Tracé 774" d="M222.931,56.7c-5.049,2.021-11.07.887-14.342-2.5,3.745-1.859,11.906-.575,14.342,2.5" transform="translate(-21.85 -5.587)" fill="url(#linear-gradient)"/>
      <path id="Tracé_775" data-name="Tracé 775" d="M225.773,18.11c4.453,2.518,5.8,5.811,4.679,10.8-4.149-2.274-5.67-5.605-4.679-10.8" transform="translate(-23.62 -1.897)" fill="url(#linear-gradient)"/>
      <path id="Tracé_776" data-name="Tracé 776" d="M222.142,443.481c-.7,3.412-1.111,6.126-1.9,8.726-.192.634-1.608,1.139-2.5,1.2-.354.025-1.163-1.32-1.147-2.028.075-3.156-.116-6.59,5.542-7.9" transform="translate(-22.69 -46.456)" fill="url(#linear-gradient)"/>
      <path id="Tracé_777" data-name="Tracé 777" d="M483.888,315.132c2.951-1.682,5.853-2.432,8.1.919.386.577-.3,2.65-1.038,3.058-2.611,1.452-5.622-.334-7.058-3.978" transform="translate(-50.689 -32.861)" fill="url(#linear-gradient)"/>
      <path id="Tracé_778" data-name="Tracé 778" d="M44.5,78.459c-1.83,1.39-3.025,2.875-3.647,2.664a29.928,29.928,0,0,1-5.314-2.973c.917-1.088,2.115-3.226,2.7-3.07,1.926.517,3.628,1.863,6.264,3.379" transform="translate(-3.723 -7.864)" fill="url(#linear-gradient)"/>
      <path id="Tracé_779" data-name="Tracé 779" d="M359.919,10.74c1.964.167,4.146-.129,5.822.654,1.276.6,1.909,2.564,2.828,3.922-1.64.223-3.534,1.061-4.859.517-1.7-.7-2.946-2.508-4.388-3.839l.6-1.254" transform="translate(-37.64 -1.125)" fill="url(#linear-gradient)"/>
      <path id="Tracé_780" data-name="Tracé 780" d="M365.686,19.352c3.146-.624,6.147-1.975,7.911,1.651.247.509-1.079,2.517-1.909,2.686-3.177.644-5.336-.655-6-4.337" transform="translate(-38.307 -1.946)" fill="url(#linear-gradient)"/>
      <path id="Tracé_781" data-name="Tracé 781" d="M208.31,38.871c1.7,2.512,3.015,4.3,4.08,6.232.119.216-1.175,1.212-1.814,1.846-1.55-1.722-3.151-3.4-4.556-5.235-.124-.161,1.034-1.307,2.29-2.842" transform="translate(-21.58 -4.072)" fill="url(#linear-gradient)"/>
      <path id="Tracé_782" data-name="Tracé 782" d="M360.9,390.124c-1.7,3.2.389,8.083-4.5,10-1.546-4.123.016-7.856,4.5-10" transform="translate(-37.274 -40.867)" fill="url(#linear-gradient)"/>
      <path id="Tracé_783" data-name="Tracé 783" d="M156.06,87.983c2.743,3.54,1.753,7.55,1.151,11.509l-1.258.2q-.971-5.68-1.943-11.362l2.049-.343" transform="translate(-16.133 -9.217)" fill="url(#linear-gradient)"/>
      <path id="Tracé_784" data-name="Tracé 784" d="M489.975,245.073c1.95-4.736,4.5-4.713,6.95-3.931.573.184.554,2.221.808,3.406l-7.758.525" transform="translate(-51.326 -25.219)" fill="url(#linear-gradient)"/>
      <path id="Tracé_785" data-name="Tracé 785" d="M528.076,266.185c-1.869,1.126-3.243,2.267-3.5,2.055a20.489,20.489,0,0,1-3.623-4.071c-.128-.183,1.431-1.928,1.56-1.852,1.637.965,3.153,2.132,5.56,3.867" transform="translate(-54.571 -27.478)" fill="url(#linear-gradient)"/>
      <path id="Tracé_786" data-name="Tracé 786" d="M225.073,12.194c-2.021,1.341-3.147,2.4-4.467,2.782-.409.12-2.1-2.088-1.917-2.352a8.035,8.035,0,0,1,3.168-2.744c.443-.2,1.548,1.071,3.216,2.314" transform="translate(-22.907 -1.033)" fill="url(#linear-gradient)"/>
      <path id="Tracé_787" data-name="Tracé 787" d="M98.759,41.411c3.679.076,6.249.868,6.44,5.209-3.949.379-5.858-1.244-6.44-5.209" transform="translate(-10.345 -4.338)" fill="url(#linear-gradient)"/>
      <path id="Tracé_788" data-name="Tracé 788" d="M455.353,59.1c.088.265.333.636.238.777-1.236,1.848-2.521,3.663-3.794,5.487l-1.985-1.422,4.261-5.811q.641.483,1.279.969" transform="translate(-47.119 -6.089)" fill="url(#linear-gradient)"/>
      <path id="Tracé_789" data-name="Tracé 789" d="M469.267,462.673c-1.82.942-2.95,1.855-3.26,1.631a21.349,21.349,0,0,1-3.748-3.638,6.762,6.762,0,0,1,1.54-1.834c1.608.962,3.1,2.117,5.469,3.841" transform="translate(-48.423 -48.064)" fill="url(#linear-gradient)"/>
      <path id="Tracé_790" data-name="Tracé 790" d="M321.833,5.3l-4.956-2.752c.532-.86.96-2.362,1.614-2.468,2.685-.434,4.173.931,3.342,5.22" transform="translate(-33.194 0)" fill="url(#linear-gradient)"/>
      <path id="Tracé_791" data-name="Tracé 791" d="M26.987,331.046l8.9-2.916q.334,1.018.67,2.034l-8.994,2.995-.577-2.113" transform="translate(-2.827 -34.373)" fill="url(#linear-gradient)"/>
      <path id="Tracé_792" data-name="Tracé 792" d="M365.556,436.755l3.955-5.911c.513.784,1.478,1.583,1.455,2.351-.069,2.287-.722,4.352-5.41,3.56" transform="translate(-38.293 -45.132)" fill="url(#linear-gradient)"/>
      <path id="Tracé_793" data-name="Tracé 793" d="M163.658,10.936l6.79-1.353c-1.605,2.374-2.235,4.235-3.45,4.776-.8.358-2.45-1.181-3.719-1.871l.379-1.552" transform="translate(-17.104 -1.004)" fill="url(#linear-gradient)"/>
      <path id="Tracé_794" data-name="Tracé 794" d="M177.135,420.781l3.389-3.118c.858,1.268,1.714,2.535,3.059,4.522h-5.689l-.758-1.4" transform="translate(-18.555 -43.752)" fill="url(#linear-gradient)"/>
      <path id="Tracé_795" data-name="Tracé 795" d="M558.143,313.38l4.6,2.59-1.465,2.247-4.34-2.876,1.2-1.961" transform="translate(-58.341 -32.828)" fill="url(#linear-gradient)"/>
    </g>
  </g>
</svg>
