<svg id="Groupe_27" data-name="Groupe 27" xmlns="http://www.w3.org/2000/svg" xmlns:xlink="http://www.w3.org/1999/xlink" width="23.858" height="31" viewBox="0 0 23.858 31">
  <defs>
    <clipPath id="clip-path">
      <rect id="Rectangle_26" data-name="Rectangle 26" width="23.858" height="31" fill="#fff"/>
    </clipPath>
  </defs>
  <g id="Groupe_26" data-name="Groupe 26" clip-path="url(#clip-path)">
    <path id="Tracé_151" data-name="Tracé 151" d="M17.18,21.1c-1.489.2-2.862.288-4.192.577A15.759,15.759,0,0,0,3.042,27.99,11.761,11.761,0,0,0,1.815,30.25c-.234.561-.512.83-1.121.729A4.619,4.619,0,0,0,0,30.974,33.1,33.1,0,0,1,5.481,19.249l-2.3-3.8a4.721,4.721,0,0,1,.564.081,8.176,8.176,0,0,0,8.742-2.068A12.377,12.377,0,0,0,16.13,4.625a6.765,6.765,0,0,1-1.54.076,6.151,6.151,0,0,1-1.355-.584l.039-.2,2.387-1A12.655,12.655,0,0,0,3.59,7.134c.112-.243.214-.492.337-.729A11.242,11.242,0,0,1,18.459,1.29a1.353,1.353,0,0,0,1.211.025c1.038-.455,2.1-.86,3.22-1.314.26.881.5,1.7.738,2.518a.469.469,0,0,1-.025.311,3.619,3.619,0,0,0,.256,3.706,3.533,3.533,0,0,1-2.67-2.176l-1.255.988c.223.164.4.3.582.429a7.709,7.709,0,0,1,2.106,10.1A19.134,19.134,0,0,0,20.585,30.57c.025.1.047.206.093.4a9.82,9.82,0,0,1-1.362-.021c-.17-.024-.369-.254-.448-.436a20.9,20.9,0,0,1-1.68-6.992c-.048-.728-.007-1.461-.007-2.427" fill="#fff"/>
  </g>
</svg>
