<svg xmlns="http://www.w3.org/2000/svg" xmlns:xlink="http://www.w3.org/1999/xlink" width="498.384" height="550.948" viewBox="0 0 498.384 550.948">
  <defs>
    <linearGradient id="linear-gradient" x1="0.5" x2="0.5" y2="1" gradientUnits="objectBoundingBox">
      <stop offset="0" stop-color="#00c2ff"/>
      <stop offset="1" stop-color="#fe00c2"/>
    </linearGradient>
    <clipPath id="clip-path">
      <rect id="Rectangle_57" data-name="Rectangle 57" width="498.384" height="550.948" fill="url(#linear-gradient)"/>
    </clipPath>
  </defs>
  <g id="Groupe_59" data-name="Groupe 59" opacity="0.3">
    <g id="Groupe_58" data-name="Groupe 58" clip-path="url(#clip-path)">
      <path id="Tracé_658" data-name="Tracé 658" d="M351.682,442.652l-4.434,1.407c-.231-1.422-.878-2.927-.613-4.251.678-3.392-1.645-4.577-3.932-5.348-.826-.278-2.99,1.05-3.287,2.027-.775,2.543-.263,4.566,2.991,5.689,6.123,2.116,9.669,11.7,7.09,17.494a47.289,47.289,0,0,0-1.933,6.668c-.072.26.057.716-.079.8-5.371,3.255-3.436,11.531-9.768,14.182a5.548,5.548,0,0,0-2.694,2.508c-2.7,5.848-7.993,7.209-13.566,8.437-2.228.49-4.266,1.844-6.944,3.054.728,1.852,1.4,3.874,2.3,5.79q7.724,16.491,15.565,32.926c1.068,2.228,2.735,4.178,3.707,6.437a17.8,17.8,0,0,1,.989,5.457c.021.241-1.7,1.027-1.9.828-1.31-1.256-3.248-2.611-3.449-4.133-.728-5.553-3.08-10.188-6.191-14.729-1.835-2.678-2.621-6.053-4.081-9.016-3.412-6.923-6.548-14.035-10.618-20.557-1.754-2.81-4.944-5.881-9.445-3.835a2.047,2.047,0,0,1-1.563.017q-6.569-3.354-13.065-6.848a2.131,2.131,0,0,1-.928-1.282c-.957-4.33-3.75-6.165-8.247-5.591,2.681-5.834,1.072-13.115-3.449-14.989,3.5-5.376,3.107-10.727-1.047-15.5-1.181-1.357-3.2-1.99-4.827-2.956-.513,2.1-1.475,4.217-1.393,6.293.063,1.615,1.651,3.109,2.169,4.779,1.064,3.43,1.912,6.93,2.71,10.434.092.4-.787,1.483-1.052,1.43-.859-.17-2.034-.511-2.388-1.165-2.026-3.747-3.964-7.554-5.673-11.454a6.344,6.344,0,0,1-.126-3.966c1.287-4.54.179-7.88-3.647-10.576-3.429-2.415-6.774-4.945-10.307-7.536-1.933,4.589-1.361,5.749,2.386,6.434a15.228,15.228,0,0,1,3.216.773c4.1,1.744,4.824,5.885,1.265,8.477a131.065,131.065,0,0,1-12.246,7.795,5.635,5.635,0,0,1-8.132-3.214c-1.109-2.919-1.436-6.15-1.974-9.267-.428-2.486-1.1-3.995-4.287-3.571-1.778.236-3.951-.78-5.62-1.776-4.624-2.76-8.982-5.977-13.669-8.615-1.1-.618-3.478-.189-4.592.653-6.462,4.886-13.26,5.648-20.6,2.428a3.543,3.543,0,0,0-.751-.348c-5.1-.831-8.334-2.94-9.278-8.825-.731-4.563-2.247-8.672-1.05-13.587a15.122,15.122,0,0,1,5.708-9.069c.859-.668.949-2.325,1.392-3.527-1.177.027-2.358.007-3.531.1-1.144.087-2.278.287-3.764.483.2-1.751.837-3.263.337-4.008a5.931,5.931,0,0,0-3.56-2.412c-.826-.134-1.96,1.3-2.872,2.118a16.775,16.775,0,0,0-3.147,3.2,36.869,36.869,0,0,0-2.263,5.287c-3.288-2.614-6.48-1.2-10.333.532-2.688,1.209-6.609-.46-9.99-.6a35.674,35.674,0,0,0-5.624.7c-1.245-.926-3.263-3.611-5.511-3.819-3.419-.317-7,1.085-10.7,1.794.774,3.029,3.05,5.566-1.428,6.151-.186-1.319-.347-2.462-.518-3.672-.441-.044-.916-.246-1.218-.1-2.353,1.155-4.737,2.27-6.992,3.6q-10.327,6.09-20.546,12.362a20.921,20.921,0,0,0-4.427,3.7c-2.31,2.54-4.463,4.819-8.511,3.873-.664-.155-2.85,2.5-2.838,3.85.036,3.98.839,7.95,1.306,11.928a13.381,13.381,0,0,1-2.806,10.518c-3.442-2.629-4.212-5.878-3.506-9.555.571-2.979,1.755-5.855,2.166-8.845.38-2.765-.07-5.634.164-8.431a30.3,30.3,0,0,1,1.349-5.208l4.094,1.868.391,1.3,38.131-26.8c.231.487.6,1.258,1.18,2.482L123,397.74c-2.9-4.01-5.239-8.174-8.47-11.463-3.4-3.459-2.3-7.875-3.618-11.725-1.026-2.989-.6-6.48-.8-9.748-.033-.529-.2-1.176.03-1.573,2.1-3.618,2.058-3.982-1.824-5.561-2.876-1.169-5.623-2.966-9.065-1.242-1.641.822-3.335-.122-2.557-2.225,2.233-6.035-1.662-9.109-5.713-11.828-1.938-1.3-3.867-3.843-6.973-2.247-.229.117-1.046-.912-1.589-1.407.57-.48,1.1-1.273,1.722-1.355.706-.094,1.5.45,2.414.775,1.969-3.475.483-5.65-2.483-7.082-4.39-2.118-8.823-3.292-13.9-1.94-7.541,2.008-15.245,3.407-23.1,5.113.14,3.055.659,5.53,3.756,6.757,2.878,1.14,5.315,1.561,7.871-1.117,4.32-4.527,11.732-4.035,16.832.859l2.756-3.5c3.558,2.526,1.259,5.308.359,7.449-.573,1.361-2.778,2.189-4.4,2.912s-3.794.57-5.114,1.59c-3.534,2.734-7.441,1.43-11.216,1.69-5.531.381-11.061.808-16.579,1.357a3.622,3.622,0,0,0-2.449,1.437c-2.215,3.69-5.038,2.39-7.872,1.154-3.532-1.543-7.039-3.139-10.587-4.726-5.379,6.618-13.339,6.8-17.635.122,3.361-1.161,6.677-2.3,9.991-3.453,1.376-.478,2.749-.967,4.852-1.71a77.834,77.834,0,0,0-.529-8.283c-.093-.628-1.947-1.3-3.04-1.406-1.748-.165-3.559.317-5.3.138-.7-.072-1.3-1.169-1.938-1.8.636-.59,1.382-1.775,1.892-1.681,6.536,1.209,11.358-2.16,16.162-5.732,1.681-1.249,3.493-2.321,5.836-3.861l3.693,1.9,3.408-3.2c-4.974-12.572-4.346-14.646,8.351-25.833-2.637-.586-4.8-1.263-7.005-1.519-6.715-.78-13.437-1.649-20.181-1.978-3.554-.174-6.392-1.014-8.886-3.6a74.578,74.578,0,0,0-6.243-5.264q.39-.751.782-1.5c4.5,1.747,9.012,3.458,13.49,5.257,2.378.955,4.615,2.652,7.055,2.981,6.019.812,12.113,1.146,18.187,1.353.912.031,2.585-1.566,2.714-2.564,1.131-8.731,7.324-13.955,13.215-19.324,1.061-.966,3.086-.873,3.737-1.036,1.52-2.073,2.307-4.316,3.711-4.812,2.719-.96,3.312,1.393,4.375,3.555.6,1.229,3.6,1.609,5.565,1.73,1.386.086,2.8-1.124,4.266-1.375,6.491-1.115,6.58-1.049,7.862-7.6.657-3.355.961-6.778,1.563-11.191,6.815-2.715,6.845-9.91,7.032-16.889.032-1.178-1.114-2.739-2.163-3.533-4.954-3.755-10.018-7.372-15.141-10.9-1.918-1.319-4.118-2.223-6.159-3.369-3-1.682-5.958-3.436-8.961-5.112-1.681-.938-3.556-2.722-5.1-2.494-5.68.834-3.677-1.446-1.993-4.007,3.941-6,3.911-6,11.253-4.724,1.206.209,2.454.178,4.548.315-1.21,2.981-2.307,5.682-3.783,9.315-.178-.913-.21-.488-.064-.414,8.772,4.459,15.712,12.13,25.559,14.649,1.209.308,3.362.168,3.873-.584,2.494-3.663,4.953-2.449,7.774-.614,1.857,1.209,3.935,2.078,5.914,3.1l.933-2.124c-3.805-1.44-7.655-2.772-11.4-4.363a31.854,31.854,0,0,1-5.694-3.354c-.2-.139.718-2.332.785-2.315,2.189.577,4.634.877,6.428,2.109,3.488,2.394,6.842,4.806,11.505,4.678a11.391,11.391,0,0,0-1.624-1.237c-1.828-.946-3.883-1.572-5.471-2.809-.86-.669-.949-2.328-1.386-3.541,1.369-.18,2.873-.8,4.074-.43,1.47.451,2.687,1.727,4.875,3.243-.687-3.386-1.238-5.877-1.683-8.387-.263-1.49-.74-3.1-.423-4.492.333-1.47,1.248-3.524,2.374-3.888,1.047-.338,2.816,1.059,4.065,1.968,1.534,1.117,2.858,2.52,5.11,4.558-.933-5.814-1.491-10.265-2.444-14.629a6.138,6.138,0,0,0-2.59-3.562c-3.379-2.021-4.1-5.169-3.913-8.56.076-1.4,1.16-3.735,2.081-3.89,1.617-.272,4.064.289,5.061,1.449,1.321,1.535,1.424,4.056,2.339,6.019,1.165,2.5,2.186,5.292,4.058,7.172,2.3,2.309,5.37,3.871,8.183,5.635,3.085,1.936,4.135,1.294,5.1-2.327a79.7,79.7,0,0,1,2.8-7.536l1.233.255a5.628,5.628,0,0,0-.771-1.769c-3.363-3.465-6.951-6.73-10.1-10.375-1.094-1.266-2.13-4.05-1.489-5.059,1.639-2.579.774-4.585.091-6.987-.765-2.691-2.489-6.32.706-7.826,1.565-.738,4.979,1.312,6.971,2.855A15.3,15.3,0,0,1,149,165.76a4.965,4.965,0,0,0,2.025,3.215,2.862,2.862,0,0,0,2.73-.738,7.475,7.475,0,0,0,.344-3.694c-.122-1.99-.439-3.967-.673-5.95l1.272-.357,1.665,1.556c1.971-1.185,3.85-3.2,5.732-3.206,2.009,0,4.02,1.9,6.381,3.159,1.061-3.485,1.8-6.42,2.853-9.235,1.244-3.321,2.256-6.928,6.666-7.651.571-.094,1.228-1.383,1.356-2.2a59.772,59.772,0,0,0-1.76-27.879c-1.567-4.95-1.844-10.308-2.722-15.6,4.184-.711,5.519,1.022,5.7,3.928.638,10.552,1.642,21.024,5.515,31.008a6.008,6.008,0,0,1-.14,3.129c-.949,4.554-1.994,9.088-2.975,13.635-.406,1.883-.767,3.779-1.1,5.678-.467,2.654-.835,5.328-1.356,7.971a35.417,35.417,0,0,1-1.146,3.715l-1.646-.3c.112-1.441.284-2.881.316-4.324a24.877,24.877,0,0,0-.251-2.863c-1.017.165-2.622,0-2.939.56-.848,1.5-2.1,3.94-1.484,4.885,2.242,3.424,2.37,6.542-.213,9.493-2.8,3.206-6.5,3.1-10.363,2.109-1.242-.318-3.485-.285-3.869.388a5.373,5.373,0,0,0-.2,4.474c.494.958,2.445,1.583,3.764,1.608,2.712.052,5.592-1.051,8.1-.445,2.2.533,5.28,2.494,5.643,4.293.426,2.113-1.663,4.732-2.885,7.667,4.793.346,9.89,5.216,16.42,1.58,1.9-4.486,1.9-4.486,6.428-3.971l2-4.173c1.618,1.787,2.772,3.118,3.99,4.386a12.151,12.151,0,0,0,3.127,2.809c.475.224,2.321-1,2.381-1.668a4.763,4.763,0,0,0-1.178-3.549c-1.81-1.641-4.364-2.547-5.919-4.352-1-1.163-1.235-3.455-1-5.129,1.6-11.553,3.637-23.05,5.006-34.627.371-3.136-1.1-6.482-1.679-9.741-.5-2.83-.544-5.313,3.411-5.649.78-.066,1.8-1.477,2.088-2.451,1.376-4.635,2.2-9.461,3.888-13.969,1.218-3.255,3.482-6.117,5.476-9.487,3.192,3.765,3.786,14.051,1.361,17.292-.452-2.366-.835-4.365-1.217-6.363l-1.189-.244-3.486,8.458,1.149.741,3.87-1.939c-.214,1.529-.111,2.649-.536,3.5-2.174,4.364-4.982,8.49-6.554,13.049-.883,2.56-.15,5.875.475,8.712.972,4.417,2.932,8.708-.025,13.692l-5.292-4.2V169.88A16.1,16.1,0,0,1,209.671,168c1.992-.528,4.17.056,3.553,2.424-.576,2.209-1.1,3.985-.257,6.308.77,2.133.6,4.6.908,7.506l2.911-2.667a9.929,9.929,0,0,1-1.529,9c-1.894,2.8-1.049,4.46,2.251,5.176,2.144.465,4.207,1.314,6.353,1.759a47.965,47.965,0,0,0,5.291.533l.364-1.093a18.889,18.889,0,0,1-1.659-2.023c-.6-.961-1.048-2.012-1.562-3.025,1.125-.331,2.4-1.169,3.349-.9,2.7.771,4.645-.257,5.092-2.581a9.626,9.626,0,0,0-1.157-5.941c-1.61-2.937-3.828-5.541-6.028-8.619-2.729,1.18-3.089-.981-2.5-3.506.869-3.734,2.121-7.352,7.487-8.756-.3,2.893-.526,5.109-.812,7.889,5.615,1.17,7.022,5.743,7.5,10.986a6.341,6.341,0,0,0,1.029,2.7c.388.608,1.183,1.38,1.742,1.339a2.34,2.34,0,0,0,1.681-1.474c1.148-6.8,4.306-13.511-.47-20.4-1.671-2.409-2.881-3.9-5.957-3.911-6.36-.014-6.7-.608-6.714-6.833-.011-6.122.846-11.665,7.359-14.461,5.337-2.291,10.025.948,9.52,6.759a57.872,57.872,0,0,1-1.093,6.127c-.65,3.3-.23,5.82,2.553,8.508,1.554,1.5,1.188,5.334,1.117,8.1-.125,4.9-.711,9.786-1.049,14.682-.137,1.983.46,3.245,2.875,2.745a17.151,17.151,0,0,1,5.246-.572c1.956.222,4.3.565,5.658,1.776,2.9,2.594,5.2,5.856,7.912,8.677.739.766,2.838,1.533,3.046,1.274a12.9,12.9,0,0,0,1.921-4.025c.1-.311-.554-.893-.882-1.334-4.058-5.465-3.966-9.67.312-13.967q5.435-5.46,13.077-.221a17.531,17.531,0,0,0,1.622.857c1.378-2.133,2.683-4.154,4.1-6.341a4.688,4.688,0,0,0-.847-1.24c-7.057-5.416-2.687-12.212,3.493-13.419,7.155-1.4,7.822-8.322,11.775-12.381.367-.378-1.081-2.525-2.228-5.035-1.977,3.055-3.178,4.975-4.445,6.849-1.233,1.823-2.535,3.6-3.807,5.4l-1.63-.767c.556-1.938.762-4.076,1.732-5.778,3.35-5.877,7.032-11.565,10.454-17.4,1.578-2.692,2.85-5.566,4.253-8.36.123-.245.107-.637.291-.761,1.361-.911,2.756-1.77,4.14-2.646-.042,1.608.335,3.387-.231,4.783-.686,1.688-2.169,3.052-3.537,4.86l8.3,2.995c7.994-10.611,15.936-21.041,23.712-31.594a8.812,8.812,0,0,0,1.872-5.324c-.47-5.92,3.441-9.892,5.492-15.717.869,1.518,1.425,2.038,1.415,2.546-.057,2.722.116,5.531-.509,8.136a23.9,23.9,0,0,1-3.287,7.689c-4.837,7.156-9.975,14.107-15,21.139l1.008,1.12c2.075-.395,4.142-.846,6.228-1.175a15.552,15.552,0,0,1,16.885,9.061c1.576,3.439,3.868,3.292,6.877.994a31.77,31.77,0,0,1,10.6-5.239c4.035-1.115,7.495-2.327,9.824-6.114.623-1.013,2.642-1.169,4.02-1.718-.3,1.47-.224,3.187-.99,4.35-.946,1.437-2.59,2.415-4.336,3.945l8.281,6.753c.667-1.476,7.294-4.391,9.784-3.52,2.358.825,2.733,2.453,1.771,4.629-1.568,3.551-5.127,4.974-10.515,4.19-1.5,4.7-2.91,9.411-4.554,14.038-.331.93-1.558,2.215-2.352,2.2-6.165-.107-9.908,3.709-13.421,7.919-2.129,2.549-4.182,5.169-6.13,7.859-3.8,5.248-9.169,5-13.832,4.264-2.9-.461-3.438-2.892-2.884-5.5.851-4.014,5.233-7.871,9.355-8.3,4.425-.458,7.9-4.334,7.408-8.587-.145-1.246-.87-2.919-1.838-3.427-.851-.445-2.664.125-3.62.83-6.079,4.495-11.485,10.346-18.179,13.452-8.352,3.875-11.635,11.981-17.861,17.475-.971.856-1.418,2.937-1.249,4.35,1.073,8.963-1.055,13.268-9.145,17.755a3.215,3.215,0,0,0-.6.559c2.407,4.468,2.407,4.468-3.189,5.447q-.065.56-.128,1.12c1.307.046,2.771.491,3.887.052,2.166-.853,4.026-2.548,6.22-3.252,2.238-.718,5.019-1.5,7.038-.778,4.439,1.582,8.548,4.092,13.475,6.567,1.386-3.253,2.287-6.3,3.912-8.881,1.237-1.967,3.4-3.353,5.144-5,.135,2.6,1.026,5.475.217,7.742-1.073,3.008-3.472,5.543-5.068,7.934,2.25,3.052,4.03,6,6.34,8.444a33.918,33.918,0,0,0,7.381,5.82c.875.516,2.7-.686,4.115-.943,1.624-.294,3.28-.411,4.921-.605-.156,1.75-.281,3.505-.495,5.249-.046.373-.547.682-.617,1.062-.473,2.559-2.032,6.683-1.085,7.382,2.115,1.562,5.559,2.08,8.334,1.794,3.065-.317,6.037-1.9,8.943-3.171a3.985,3.985,0,0,0,1.807-2.4c1.2-4.313,3.837-5.94,7.579-3.295,3.5,2.474,6.7,1.594,9.766.593,4.593-1.5,8.907-3.856,13.284-5.822,2.149,6.029,1.226,7.164-6.058,7.529a36.488,36.488,0,0,0-8.8,1.945c-8.483,2.636-15.888,6.905-21.1,14.408-.677.973-2.134,1.391-2.865,2.345-1.036,1.353-2.408,3-2.326,4.453.05.878,2.575,1.616,4.764,2.857a47.391,47.391,0,0,1-.682,4.971c-1.419,6.363-.072,9.613,5.326,13.173.657.433,1,2.7.889,2.745-6.309,2.779-5.455,9.484-7.891,14.337a15.4,15.4,0,0,0-.882,3.766l10.143,4.961-.1.194q2.31.8,4.621,1.6c.995.344,2,1.012,2.984.978a54.025,54.025,0,0,0,22.807-5.427,45.783,45.783,0,0,1,10.809-3.5c1.5-.326,3.306.732,4.973,1.16-1.46,1.346-2.709,3.411-4.415,3.909-5.835,1.7-11.83,2.853-16.82,4-.9,2.615-1.334,5.905-2.2,6.021-2.065.277-4.33-.943-7.692-1.891-2.347,1.611-5.979,1.736-10.376.829-4.136-.853-8.8.41-13.135,1.259-1.212.238-2.356,2.167-3.025,3.562-1.67,3.483-3,7.125-4.557,10.665-2.013,4.588-1.634,5.279,3.521,5.253,13.262-.067,26.52-.167,39.682,1.878a2.641,2.641,0,0,0,1.09.013c1.662-1.748,2.661-3.74,4-4.007,2.627-.522,3.808,1.149,3.926,3.985.035.848,2.279,1.542,3.423,2.422,1.391,1.071,2.689,2.262,4.826,4.083-5.751,2.768-11.18,3.1-16.605,3.446q-.173-.638-.345-1.278l5.883-1.7.37-1.052-9.085-2.676-.655,1.23,2.043,3.477c-1.5-.071-2.731.19-3.665-.221-13.276-5.836-27-8.355-41.45-5.919a30.317,30.317,0,0,0-6.012,1.134c4.255,1.248,5.134,3.392,3.118,6.682a1.773,1.773,0,0,0-.222.793c-.35,5.873-.348,5.873-6.334,4.271-5.1-1.367-7.225.643-5.908,6l-3.454.252c-.179.207-.514.42-.506.618.18,4.172-.184,8.49.824,12.458.632,2.486,3.183,6.14,5.142,6.319,5.595.511,11.5,3.01,17.022-.509a29.734,29.734,0,0,1,4.562-2.866c2.454-.986,2.8-2.641,2.519-4.96-.871-7.089-.627-7.341,6.547-8.268,5.944-.767,11.385-.27,14.91,5.548,1.612,2.661,1.746,5.171-.181,7.708a6.882,6.882,0,0,0-1.517,2.393c-.8,3.89-2.884,2.967-5.091,1.449-4.6-3.167-9.434-1.934-13.439,1.834-1.873,1.761-5.727,1.6-8.725,1.935a104.426,104.426,0,0,1-12.276.749c-4.268-.028-5.859,2.848-7.223,5.257,1.627,1.68,3.712,2.886,4.226,4.571.9,2.963-1.15,4.931-3.486,6.844a24.848,24.848,0,0,0-6.481,7.575c-.546,1.073,1.823,3.627,2.863,5.506l1.334-.217c.9-1.885,1.8-3.771,2.809-5.9,4.948-.963,10.2-1.84,14.36,2.731,3.852,4.233,2.546,8.632-.566,13.106l7.333,3.1a13.645,13.645,0,0,0,1.291-1.221c4.614-5.5,10.617-5.334,13.329,1.321,2.769,6.792,9.135,7.391,14.134,10.346.737.436,2.646-1.112,4.014-1.743q-.086-.68-.171-1.361l-11.873-5.738q.256-.737.509-1.473c5.36-1.256,9.775,2.715,15.161,3.692-.2-1.885-.378-3.529-.578-5.394,3.737-.362,6.574,1.652,6.816,4.347.641,7.094,6.305,6.981,10.8,8.687,1.28.485,2.829.469,3.917,1.191.847.562,1.169,1.914,1.725,2.916-1.091.363-2.366,1.276-3.241.985a65.566,65.566,0,0,1-7.2-3.311c-.665,3.07-1.238,5.716-1.809,8.364,11.985,6.526,23.929,13.126,36,19.482,1.552.817,3.787.623,5.67.467,5.282-.436,9.66,1.877,14.142,4.108-6.7.516-13.015,3.808-19.808-1.726-5.512-4.492-13.018-6.546-19.671-9.612a7.3,7.3,0,0,0-2.407-.175c4.458,15.27,3.5,18.412-8.26,25.972,1.546,1.983,3.221,3.806,4.517,5.867,2.317,3.685,4.188,7.664,6.671,11.224,1.5,2.144,3.888,3.638,5.7,5.593a30.171,30.171,0,0,1,2.71,4.024c-1.681-.221-3.515-.1-5-.762-1.412-.63-2.459-2.079-4-3.467l-7.172,8.927c3.18.815,6.746,6.511,6.141,9.437-.525,2.538-2.249,2.881-4.424,2.189-3.745-1.191-5.675-4.379-5.964-9.783-4.606-.784-9.231-1.424-13.771-2.44-1.205-.27-2.89-1.556-3.091-2.615-.977-5.137-4.35-8.22-8.437-10.76-3.172-1.971-6.407-3.862-9.727-5.566-5.242-2.692-6.242-7.51-6.314-12.616-.037-2.607,1.46-4.266,4.566-4.085a11.622,11.622,0,0,1,10.331,8.665c1.012,4.363,7.374,7.274,11.168,5.008,1.887-1.127,2.878-2.552.765-4.587-5.556-5.35-12.129-10.069-16.248-16.377-5.105-7.819-13.871-9.721-20.137-15.365a4.341,4.341,0,0,0-3.73-.773c-9.061,3.736-15.378-.165-20.417-6.778M278.395,450.1c1.494-2.826,2.205-5.246,3.752-6.869,3.123-3.279,5.45-6.56,5.155-11.436-.1-1.629,1.109-3.682,2.348-4.9.612-.6,3.04-.224,3.989.533,5.01,4.005,9.28.1,13.344-1.566,1.672-.686,2.837-4.643,2.779-7.078a68.37,68.37,0,0,0-2.044-13.9c-1.767-7.515-4.044-8.463-11.291-5.636-2.59,1.011-3.7,2.1-1.872,4.862a10.764,10.764,0,0,1,1.955,5.327c.037,1.6-.739,3.929-1.945,4.694-1.829,1.161-3.828.445-5.035-1.947-1.812-3.591-3.41-3.421-6.028-.327a40.5,40.5,0,0,1-6.64,5.908c-2.71,2.046-5.724,3.69-8.45,5.718-3.442,2.561-9.615.013-10.766-4.089-.733-2.612-2.688-4.881-4.1-7.3l-1.336.746a12.839,12.839,0,0,0,.9,2.584c2.233,3.695,4.551,7.276,3.094,12.011-.176.573,1.489,2.144,2.557,2.517.734.256,2.006-.629,2.859-1.249.569-.413.824-1.256,1.907-3.04,4.852,8.879,7.717,18.155,14.866,24.441m-36.782-25.5c.2-2.606,1.1-5.019.283-5.964-1.176-1.367-3.539-2.1-5.486-2.325-2.689-.308-5.46.158-8.2.206-3.1.054-6.194.012-9.016.012-1.361,4.656-1.445,7.786,3.718,8.046a3.887,3.887,0,0,1,1.873.839c2.271,1.625,3.9,1.007,5.67-1.017,3.413-3.912,6.732-4.049,11.155.2m164.1,34.933c-.954.163-2.571.393-4.168.719-3,.611-3.6,2.443-2.033,4.832,2.767,4.231,6.831,6.851,10.91,8.808l-4.709-14.359m-65.49-313.657c0,1-.024,2.619,0,4.232.052,2.854,1.75,3.778,4.133,2.849,4.705-1.834,7.776-5.5,10.494-9.547l-14.631,2.465m-4.1,285.894c.226-2.665.253-4.981-4.023-4-1.267.291-3.04-.906-4.366-1.756-1.857-1.189-3.513-2.693-5.485-4.242-1.8,6.569-.181,8.613,5.664,8.765a67.319,67.319,0,0,1,8.209,1.232m-7.413-306.488a22.147,22.147,0,0,1-3.074,2.6c-3.376,1.868-2.493,4.684-1.243,7.059.525,1,2.659,1.322,4.121,1.524.314.043,1.3-1.784,1.257-2.715-.12-2.595-.617-5.172-1.061-8.466M425.574,445.99c-3.6-2.646-6.289-6.664-10.652-3.111-1.056.86-.83,3.3-1.318,5.591l11.971-2.48M59.888,325.036c2.779,2.791,5.744,2.075,7.571-.5,1.489-2.1,2.249-5.282-1.819-6.322l-5.753,6.824m290.473,58.136-.888-.913a55.454,55.454,0,0,0-5,5.407c-.189.255,1.594,1.971,3.024,3.68l2.868-8.174m-39.235,42.083.5,1.361,5.55-.462-2.638-4.788-3.411,3.888" transform="translate(-0.472 -12.653)" fill="url(#linear-gradient)"/>
      <path id="Tracé_659" data-name="Tracé 659" d="M480.068,409.608c1.228-1.774,1.819-2.63,2.764-4l-10.205-3.833q.108-.656.218-1.312a82.407,82.407,0,0,1,8.371.051c4.952.509,9.857,1.523,14.814,1.9a7.982,7.982,0,0,0,4.96-1.723c2.172-1.671,3.66-4.326,5.95-5.726,2.666-1.63,5.968-2.178,8.847-3.514,5.544-2.572,10.754-1.7,15.993.869.7.346,1.846-.236,2.791-.334,1.631-.169,3.4-.751,4.87-.332,2.267.646,4.334,1.992,6.486,3.04l-4.893,5.336,3.23,9.435c4.084,1.013,7.647,1.55,10.936,2.806,3.517,1.342,2.508,4.911,1.781,7.21-.407,1.285-3.526,2.606-5.256,2.414-5.46-.606-9.312.337-12.935,5.324-8.929,12.288-30.253,11.059-37.642-3.354-1.435-2.8-2.53-5.784-4.079-8.515a5.5,5.5,0,0,0-3.057-2.221c-4.338-1.245-8.749-2.238-13.941-3.527m6.753-2.7c2.44,3.222,8.483,5.767,9.954,4.438,1.144-1.033,1.418-3.03,2.484-5.562l-12.438,1.125" transform="translate(-79.793 -65.828)" fill="url(#linear-gradient)"/>
      <path id="Tracé_660" data-name="Tracé 660" d="M296.97,73.151c-2.648-1.024-6.358-2.052-6.289-2.5.48-3.109,1.086-6.651,3-8.917,1.14-1.35,4.814-1.083,7.166-.618.906.179,2.112,3.1,1.811,4.465-2.906,13.214-4.482,26.6-6.01,40.021-.41,3.6-2.065,7.064-3.321,11.145-3.479-2.159-4.954-.442-5.979,2.076-1.505,3.7-2.939,7.424-4.474,11.109-.618,1.483-1.426,2.886-2.311,4.654l-3.58-2.738-5.232,9.658-.942-.141a16.417,16.417,0,0,1,.046-4.01c1.946-7.474,4.1-14.891,6.043-22.367,1.068-4.12,1.839-8.317,2.76-12.475a18.591,18.591,0,0,1,1.145-4.373c.411-.811,2.072-1.883,2.412-1.662.907.586,2.072,1.926,1.927,2.754a19.82,19.82,0,0,1-2.181,5.711c-3.769,7.079-4.253,14.642-3.966,22.344l1.216.721c1.241-1.731,2.938-3.295,3.646-5.221,3.7-10.078,7.19-20.237,10.664-30.4a26.915,26.915,0,0,0,1.025-5.249c.525-4.062.968-8.135,1.41-12.207a12.4,12.4,0,0,0,.012-1.785" transform="translate(-45.701 -10.255)" fill="url(#linear-gradient)"/>
      <path id="Tracé_661" data-name="Tracé 661" d="M99.883,440.525c.028-.608.079-1.711.111-2.411l6.943,3.36c-4.772,5.663-12.99,5.447-19.15,9.92,1.918.684,3.487,1.114,4.941,1.788,3.675,1.7,4.431,5.128,1.6,8.052a14.5,14.5,0,0,1-13.19,4.493c-4.035-.639-5.5-4.419-3.173-7.853a28.235,28.235,0,0,0,2.817-4.209c-5.285,2.981-12.7,2.189-15.559,9.372a5.335,5.335,0,0,1-2.2,2.393,5.562,5.562,0,0,1-3.354.815c-.425-.064-.713-1.824-.854-2.842-.58-4.189,1.218-5.871,5.467-6.909,5.413-1.322,10.556-3.9,15.673-6.244,6.624-3.036,13.108-6.379,19.931-9.726" transform="translate(-9.911 -73.966)" fill="url(#linear-gradient)"/>
      <path id="Tracé_662" data-name="Tracé 662" d="M441.523,231.711c.666-2.873,1.169-5.045,1.767-7.627.669.591,1.465,1.3,2.015,1.783l29.519-12.227-3.992-3,.289-.6c2.187.691,4.527,2.214,6.521,1.849,2.23-.408,4.011-2.873,6.258-3.759,1.1-.436,2.818.677,4.255,1.087-.72,1.019-1.219,2.533-2.2,2.969-4.35,1.936-8.844,3.547-13.272,5.31-1.462.583-2.881,1.272-4.32,1.913l.231,1.145c1.4.133,2.8.248,4.192.4,4.443.488,6.154,3.817,3.98,7.721-2.08,3.734-8.928,7.163-13.147,6.585a4.716,4.716,0,0,1-4.113-6.3c.431-1.44,1.13-2.8,2.039-5-7.448,1.79-12.8,7.874-20.024,7.744" transform="translate(-74.542 -35.121)" fill="url(#linear-gradient)"/>
      <path id="Tracé_663" data-name="Tracé 663" d="M86.227,266.132c1.473,2.916,2.549,5.047,3.81,7.54-6.09.344-12.076-1.824-18.053-3.77-5.815-1.893-11.532-4.08-18.047-6.408-2.175-4.291-7.287-5.737-12.281-5.155-7.433.867-11.283-4.811-16.724-7.546-.234-.117-.213-.738-.574-2.167,2.37.2,4.654-.224,6.29.618a143.721,143.721,0,0,0,36.154,12.6,84.174,84.174,0,0,0,8.63.932c2.567.27,5.129.66,7.7.79a18.733,18.733,0,0,0,4.449-.45c1.068-.206,2.152-1.146,3.094-.983a18.04,18.04,0,0,1,4.147,1.8c-1.3.942-2.491,2.175-3.941,2.725-.984.372-2.331-.216-4.66-.528" transform="translate(-4.113 -41.975)" fill="url(#linear-gradient)"/>
      <path id="Tracé_664" data-name="Tracé 664" d="M429.64,604.425a5.653,5.653,0,0,0,.011,1.187c.677,3.076,1.3,6.378-2.257,7.952-3.493,1.545-6.539-.125-8.767-2.884-1.448-1.792-2.985-3.829-3.478-5.986-.466-2.045-.341-5,.863-6.413,1.007-1.185,3.941-.827,6.033-.953.881-.053,1.792.409,3.557.858-3.11-7.141-9.681-11.671-10.849-19.149l7.668,1.621c-.251.387-.813,1.248-1.454,2.231.138.211.353.531.555.859,4.141,6.671,8.158,13.424,12.463,19.987,2.78,4.237,5.979,8.2,9,12.276.488.659,1.387,1.238,1.468,1.928a21.857,21.857,0,0,1-.243,4.108c-1.229-.478-3.014-.6-3.594-1.5-2.671-4.142-4.974-8.519-7.483-12.769-.8-1.364-1.832-2.6-2.759-3.888l-.735.533" transform="translate(-70.022 -97.758)" fill="url(#linear-gradient)"/>
      <path id="Tracé_665" data-name="Tracé 665" d="M80.422,422.637l-.706-3.3c-1.795.549-3.785.667-5.051,1.685-1.211.973-1.668,2.883-2.709,4.861,7.5,3.464,13.755-3.9,21.171-1.952-.68.617-1,1.131-1.435,1.269-11.423,3.595-22.889,7.057-34.269,10.779-2.951.965-5.655,2.7-8.448,4.129-2.45,1.254-4.875,2.773-7.974-1.144,3.353-1.317,6.191-2.821,9.216-3.538,5.9-1.4,12.149-1.863,15.981-7.545.875-1.3,1.626-2.679,2.433-4.022l-.758-1.329c-4.705,1.589-9.514,2.934-14.075,4.865-2.582,1.093-4.8,2.686-8.587-.026a40.206,40.206,0,0,1,5.343-2.843c7.546-2.574,15.181-4.891,22.679-7.592,1.086-.391,1.479-2.464,2.424-3.56.832-.966,1.96-2.243,3-2.287.893-.037,1.907,1.426,2.765,2.323a28.5,28.5,0,0,1,2.2,2.73c2.735,3.677,1.852,5.586-3.208,6.5" transform="translate(-6.922 -69.403)" fill="url(#linear-gradient)"/>
      <path id="Tracé_666" data-name="Tracé 666" d="M49.618,99.664c-.686,4.285-2.773,6.186-6.747,5.7-4.286-.528-7.287-3.026-9.583-6.548-2.252-3.454-4.793-6.747-6.734-10.365-.759-1.414-.229-3.52-.286-5.31,1.641.06,3.6-.439,4.867.278a111.181,111.181,0,0,1,14.27,9.1c2.025,1.6,2.847,4.718,4.214,7.147" transform="translate(-4.413 -14.017)" fill="url(#linear-gradient)"/>
      <path id="Tracé_667" data-name="Tracé 667" d="M517.052,450.134c23.146-1.114,43.349,10.8,65.6,12.214,1.089.069,2.091,1.487,3.03,2.2-.283.719-.375,1.187-.481,1.189-4.822.146-10.84,2.133-14.23-.017-7.874-5-16.455-5.028-24.877-6.793-8.34-1.749-16.537-4.2-24.76-6.469-1.453-.4-2.725-1.458-4.278-2.321" transform="translate(-87.293 -75.983)" fill="url(#linear-gradient)"/>
      <path id="Tracé_668" data-name="Tracé 668" d="M323.991,107.377c2.11-23.01,16.527-41.277,21.055-62.926.2-.979,1.884-1.651,2.752-2.363.564.373.785.46.779.524-.509,4.853.686,11.148-1.921,14.253-5.317,6.334-7.242,13.483-9.231,20.915-2.586,9.658-6.013,18.958-11.626,27.326-.443.661-.992,1.251-1.809,2.271" transform="translate(-54.699 -7.106)" fill="url(#linear-gradient)"/>
      <path id="Tracé_669" data-name="Tracé 669" d="M521.446,235.6l-15.184-7.934c-2.169,4.4-6.567,5.142-10.742,6.438a44.761,44.761,0,0,0-8.244,3.483c-6.618,3.637-13.391,6.635-21.126,6.863,10.9-9.829,27.135-9.633,37.476-20.426,4.731,2.345,9.224,5.388,14.176,6.724,3.062.826,3.394,1.972,3.644,4.851" transform="translate(-78.699 -37.822)" fill="url(#linear-gradient)"/>
      <path id="Tracé_670" data-name="Tracé 670" d="M468.433,198.459c-2.553-2.647-4.425-1.334-6.738.023-7.559,4.437-15.291,8.576-22.957,12.829l-.942-1.227a47.844,47.844,0,0,1,5.216-4.44c4.172-2.666,8.63-4.758,10.878-9.785.594-1.328,3.546-2.272,5.4-2.245,6.278.093,10.437-3.744,15.051-7.031,2.622-1.867,5.735-3.045,9.187-4.822.692,5.1-2.119,5.919-4.632,6.865-2.188.824-4.607,1.154-6.636,2.24-2.673,1.431-5.35,3.237-3.823,7.592" transform="translate(-73.913 -30.687)" fill="url(#linear-gradient)"/>
      <path id="Tracé_671" data-name="Tracé 671" d="M435.324,573.23c2.256,2.223,4.406,4.568,6.794,6.639,2.859,2.478,6.012,4.616,8.859,7.107,1.484,1.3,3.59,2.981,3.677,4.583.357,6.583,4.9,10.186,8.917,14.333a35.328,35.328,0,0,1,4.5,6.274c.376.614.283,2.18-.148,2.462a2.726,2.726,0,0,1-2.588-.092,21.587,21.587,0,0,1-3.064-3.734c-2.556-3.494-4.933-7.129-7.632-10.509-6.861-8.591-13.859-17.072-20.8-25.6l1.492-1.464" transform="translate(-73.243 -96.778)" fill="url(#linear-gradient)"/>
      <path id="Tracé_672" data-name="Tracé 672" d="M538.459,506.628c2.675.46,5.631.348,7.966,1.5,4.817,2.375,9.2,5.621,13.953,8.139,4.843,2.563,9.967,4.592,14.869,7.054a13.6,13.6,0,0,1,3.447,3.188c.1.105-.725,1.472-.993,1.43-1.406-.219-3.026-.355-4.108-1.15-6.249-4.592-13.2-6.826-20.847-8.137a20.92,20.92,0,0,1-14.737-10.277l.45-1.745" transform="translate(-90.831 -85.533)" fill="url(#linear-gradient)"/>
      <path id="Tracé_673" data-name="Tracé 673" d="M291.094,557.993a26.353,26.353,0,0,1-1.534,4.945c-1.584,2.994-3.516,5.836-7.681,4.536a7.384,7.384,0,0,1-4.59-8.67,11.661,11.661,0,0,1,2.824-5.745c1.847-1.748,4.441-2.657,3.767-5.964-.059-.289,1-1.189,1.365-1.1.7.171,1.888,1.047,1.81,1.29-1.011,3.154,1.592,4.5,2.936,6.536.709,1.072.718,2.606,1.1,4.169" transform="translate(-46.783 -92.179)" fill="url(#linear-gradient)"/>
      <path id="Tracé_674" data-name="Tracé 674" d="M521.366,365.135a35.688,35.688,0,0,1-6.181,1.491c-3.523.232-7.082-.109-10.609.086a4.425,4.425,0,0,0-2.7,1.839c-2.056,2.754-3.375,2.78-5.748-.014a2.473,2.473,0,0,0-1.74-.609c-4,.063-8.008.449-11.989.25-3.006-.15-5.977-1.012-9.276-1.613.383-.847.482-1.593.815-1.718,3.084-1.157,7.7-4.061,9.064-2.965,5.672,4.562,11.692,1.519,17.391,1.944,5.115.382,10.353-1.1,15.555-1.556a27.109,27.109,0,0,1,5.19.516q.111,1.174.224,2.349" transform="translate(-79.878 -61.055)" fill="url(#linear-gradient)"/>
      <path id="Tracé_675" data-name="Tracé 675" d="M233.435,139.27a48.581,48.581,0,0,1-2.826-6.461c-.116-.389,1.868-1.4,3.8-2.788.305-9.554.569-20.017,1.052-30.47.068-1.466,1.217-2.882,1.864-4.32l2.021.265a49.4,49.4,0,0,1,.419,6.65c-.231,3.538-.939,7.045-1.172,10.582-.052.794.889,1.817,1.612,2.467,2.292,2.059,2.21,3.977-.112,5.847a5.079,5.079,0,0,0-1.662,2.938c-.523,3.4-.618,6.878-1.2,10.27a25.553,25.553,0,0,1-1.945,4.981l-1.853.037" transform="translate(-38.933 -16.078)" fill="url(#linear-gradient)"/>
      <path id="Tracé_676" data-name="Tracé 676" d="M383.855,99.149c.836-2.573,1.171-5.48,2.616-7.648,2.672-4.008,6.155-7.466,9-11.369,3.471-4.756,6.634-9.737,9.938-14.614.537-.793.964-1.858,1.724-2.249.818-.42,1.967-.193,2.972-.249.046,1,.539,2.512.072,2.915-8.492,7.336-10.817,18.558-17.276,27.131a90.516,90.516,0,0,1-6.819,7.3l-2.231-1.216" transform="translate(-64.806 -10.638)" fill="url(#linear-gradient)"/>
      <path id="Tracé_677" data-name="Tracé 677" d="M45.113,315.406c-3.891.209-7.022.817-10.029.439-5.063-.637-10.019-2.091-15.073-2.851-5.423-.815-10.927-1.1-16.354-1.9-1.3-.192-2.442-1.5-3.656-2.3,1.238-.613,2.782-2.046,3.666-1.715,10.614,3.969,21.716,1.686,32.529,2.823,3.238.34,6.66.589,8.918,5.507" transform="translate(0 -51.835)" fill="url(#linear-gradient)"/>
      <path id="Tracé_678" data-name="Tracé 678" d="M126.914,135.2a8.467,8.467,0,0,1,2.026,1.445q7.22,8.807,14.288,17.736a6.273,6.273,0,0,1,1.142,3.082,11.732,11.732,0,0,1-.473,3.084c-1.01-.209-2.282-.1-2.979-.687a42.134,42.134,0,0,1-5.537-5.447c-3.6-4.369-7.118-8.818-10.469-13.381-1.9-2.589-.889-5.677,2-5.831" transform="translate(-20.925 -22.826)" fill="url(#linear-gradient)"/>
      <path id="Tracé_679" data-name="Tracé 679" d="M537.009,492.047c2.193.216,4.5.084,6.556.727,3.284,1.026,6.4,2.577,9.6,3.887,8.515,3.488,17.053,6.919,25.529,10.5a11.5,11.5,0,0,1,3.365,2.728c.17.171-.445,1.632-.72,1.64-1.563.038-3.581.4-4.625-.411-6.2-4.806-13.561-6.7-20.783-9.12-6.59-2.205-12.982-5.008-19.461-7.547q.269-1.2.539-2.405" transform="translate(-90.572 -83.072)" fill="url(#linear-gradient)"/>
      <path id="Tracé_680" data-name="Tracé 680" d="M368.991,98.031c.307-1.788.229-3.765,1-5.328,1.76-3.587,3.921-6.978,5.936-10.437C380.481,74.444,385,66.6,389.67,58.844a9.746,9.746,0,0,1,3.3-2.66c.21-.134,1.467.693,1.437,1-.141,1.413-.1,3.281-.962,4.112-6.176,5.942-9.323,13.64-12.822,21.165-2.717,5.842-5.571,11.616-11.626,15.574" transform="translate(-62.296 -9.483)" fill="url(#linear-gradient)"/>
      <path id="Tracé_681" data-name="Tracé 681" d="M53.3,302.959c-5.492-.855-11.029-1.5-16.465-2.622-6.337-1.312-12.55-3.222-18.888-4.522-2.643-.542-5.543.171-8.185-.371-1.473-.3-2.656-2.011-3.971-3.086,1.394-.507,2.869-1.59,4.165-1.406,3.091.438,6.059,1.695,9.145,2.227,8.529,1.47,17.12,2.585,25.626,4.167,3.2.594,6.227,2.089,9.333,3.173l-.761,2.441" transform="translate(-0.978 -49.118)" fill="url(#linear-gradient)"/>
      <path id="Tracé_682" data-name="Tracé 682" d="M406.924,604.916c2.446,3.2,5.17,6.229,7.281,9.637,4.27,6.893,6.843,14.855,13.075,20.51a3.027,3.027,0,0,1,1.07,1.74,34.567,34.567,0,0,1-.216,4.249c-1.33-.483-2.676-.924-3.977-1.476-.332-.141-.558-.606-.766-.961-5.41-9.232-10.861-18.441-16.164-27.734-.88-1.543-1.105-3.459-1.634-5.2l1.331-.762" transform="translate(-68.476 -102.127)" fill="url(#linear-gradient)"/>
      <path id="Tracé_683" data-name="Tracé 683" d="M101.874,468.777c-5.025,5.393-11.464,8.11-17.972,10.767-3.4,1.387-6.64,3.158-9.977,4.7a69.976,69.976,0,0,1-7.527,3.214,2.9,2.9,0,0,1-2.587-1.263,3.153,3.153,0,0,1,1.217-2.681,29.032,29.032,0,0,1,4.846-2.282c4.4-1.918,8.917-3.613,13.2-5.777,6-3.034,11.817-6.431,18.8-6.681" transform="translate(-10.766 -79.143)" fill="url(#linear-gradient)"/>
      <path id="Tracé_684" data-name="Tracé 684" d="M448.608,572.742a41.354,41.354,0,0,1,4.034-2.2c1.153-.462,2.592-1.135,3.575-.786a3.343,3.343,0,0,1,1.266,3.05c-1.295,3.62.532,5.94,2.651,8.442,4.345,5.128,8.608,10.333,12.675,15.681.809,1.064.588,2.91.842,4.394-1.233-.334-2.978-.26-3.619-1.066-7.17-9.006-14.171-18.147-21.423-27.518" transform="translate(-75.738 -96.175)" fill="url(#linear-gradient)"/>
      <path id="Tracé_685" data-name="Tracé 685" d="M438.465,198.688l-1.6-7.791c2.336.037,4.674.084,7.011.106a2.544,2.544,0,0,0,1.209-.166q9.686-5.46,19.338-10.978c.235-.134.384-.449.625-.536,1.836-.662,3.677-1.316,5.551-1.851.093-.027.862,1.432.715,1.573a25.8,25.8,0,0,1-4.576,3.862c-2.317,1.356-5.01,2.08-7.292,3.483-4.94,3.04-9.668,6.422-14.595,9.486a50.211,50.211,0,0,1-6.39,2.813" transform="translate(-73.756 -29.962)" fill="url(#linear-gradient)"/>
      <path id="Tracé_686" data-name="Tracé 686" d="M572.116,366.3c-4.62.438-7.548-1.919-10.092-4.625-4.011-4.263-6.868-9.817-13.526-10.893-.774-.125-1.49-1.816-1.828-2.907-.163-.523.657-1.937.968-1.918,1.282.08,3.246.156,3.691.948,3.21,5.7,9.13,7.274,14.316,10.043,3.507,1.873,7.116,3.935,6.47,9.352" transform="translate(-92.29 -58.408)" fill="url(#linear-gradient)"/>
      <path id="Tracé_687" data-name="Tracé 687" d="M339.672,145.337c-.018-3.721,5.867-11.912,9.524-13.4,2.154-.874,3.162-.039,3.39,2.05.5,4.54-4.414,12.64-8.535,14.157-2.827,1.041-4.364.053-4.379-2.812" transform="translate(-57.346 -22.218)" fill="url(#linear-gradient)"/>
      <path id="Tracé_688" data-name="Tracé 688" d="M500.83,480.819a123.006,123.006,0,0,1-11.346-5.674c-1.105-.68-1.141-3.1-1.667-4.719,1.642-.425,3.607-1.639,4.869-1.127a72.556,72.556,0,0,1,11.19,5.905c.987.619,1.2,2.47,1.765,3.757l-4.812,1.858" transform="translate(-82.358 -79.21)" fill="url(#linear-gradient)"/>
      <path id="Tracé_689" data-name="Tracé 689" d="M164.4,521.8c-2.686-.443-4.991-1.431-4.924-4.831.072-3.625,4.558-7.882,8.354-7.771,2.964.086,5.083,1.463,5,4.745-.1,3.736-4.7,7.962-8.426,7.856" transform="translate(-26.924 -85.966)" fill="url(#linear-gradient)"/>
      <path id="Tracé_690" data-name="Tracé 690" d="M105.652,223.278c-5.354-1.6-9.1-7.019-8.387-11.88a4.327,4.327,0,0,1,.967-1.977c3.2.915,6.715,1.431,9.433,3.173,2.435,1.56,1.156,3.821-.773,5.786-.956.973-.815,3.024-1.241,4.9" transform="translate(-16.406 -35.356)" fill="url(#linear-gradient)"/>
      <path id="Tracé_691" data-name="Tracé 691" d="M89.732,295.847l2.784,2.336-.2,1.312c-3.646-.342-7.333-.444-10.926-1.08-5.941-1.051-11.837-2.386-17.716-3.755a7.631,7.631,0,0,1-2.892-1.925c-.2-.176.1-1.409.226-1.42a10.539,10.539,0,0,1,3.493.028c6.34,1.681,12.613,3.633,18.992,5.142,1.773.419,3.828-.356,6.234-.639" transform="translate(-10.251 -49.16)" fill="url(#linear-gradient)"/>
      <path id="Tracé_692" data-name="Tracé 692" d="M342.883,124.216c.629-1.248,1.224-2.514,1.893-3.74,2.03-3.711,4.163-7.368,6.117-11.118,2.011-3.864,3.809-7.84,5.834-11.7a2.349,2.349,0,0,1,2-1.008c.549.135,1.073,1.151,1.227,1.863a3.181,3.181,0,0,1-.5,1.945c-3.378,6.157-6.7,12.349-10.253,18.406a61.043,61.043,0,0,1-4.864,6.322Z" transform="translate(-57.889 -16.314)" fill="url(#linear-gradient)"/>
      <path id="Tracé_693" data-name="Tracé 693" d="M507.706,469.393c2.538.634,3.942.864,5.26,1.335,8.086,2.893,16.164,5.807,24.206,8.817a10.622,10.622,0,0,1,2.559,2.055c-.984.528-2.252,1.747-2.909,1.478-9.136-3.739-18.191-7.673-27.25-11.6-.413-.179-.668-.723-1.867-2.086" transform="translate(-85.715 -79.247)" fill="url(#linear-gradient)"/>
      <path id="Tracé_694" data-name="Tracé 694" d="M218.8,189.22a17.688,17.688,0,0,1,1.867,3.846c.756,3.49,1.273,6.737,4.66,9.2,1.415,1.027,1.1,4.446,1.674,7.32-2.626-1.371-5.086-1.912-6.218-3.437a12.74,12.74,0,0,1-2.263-6.9c-.058-2.24,1.319-4.411-1.415-6.161-.569-.364-.082-2.376-.082-3.627l1.778-.235" transform="translate(-36.608 -31.946)" fill="url(#linear-gradient)"/>
      <path id="Tracé_695" data-name="Tracé 695" d="M228.708,554.217c-4.365-3.688-4.228-6.55.167-10.158.923-.758,1.023-2.459,1.661-3.641.677-1.254,1.544-2.407,2.437-3.773,2.331,3.313-.7,14.588-4.265,17.572" transform="translate(-38.072 -90.601)" fill="url(#linear-gradient)"/>
      <path id="Tracé_696" data-name="Tracé 696" d="M277.661,76.157c-.017.273.064.608-.064.81a64.051,64.051,0,0,1-4.139,6.191c-.244.3-2.665-.406-2.725-.836a54.489,54.489,0,0,1-.256-7.1,1.166,1.166,0,0,1,.368-.721c1.321-1.307,2.663-2.592,4-3.883q1.757,2.525,3.514,5.05l-.7.485" transform="translate(-45.664 -11.923)" fill="url(#linear-gradient)"/>
      <path id="Tracé_697" data-name="Tracé 697" d="M179.761,507.48c0-4.844,2.6-8.1,5.635-8.169,2.557-.055,3.816,1.34,3.791,3.813-.032,3.156-3.434,6.891-6.266,6.485-1.333-.191-2.485-1.647-3.159-2.129" transform="translate(-30.349 -84.298)" fill="url(#linear-gradient)"/>
      <path id="Tracé_698" data-name="Tracé 698" d="M326.113,183.966c-4.622-1.98-7.5-7.455-6.361-11.675.176-.655,1.071-1.7,1.4-1.619a5.712,5.712,0,0,1,3.154,1.555c2.542,3.417,2.838,7.3,1.8,11.739" transform="translate(-53.941 -28.813)" fill="url(#linear-gradient)"/>
      <path id="Tracé_699" data-name="Tracé 699" d="M316.546,544.657c-1.5.92-3.008,2.594-4.514,2.6-2.754,0-4.915-1.975-4.182-4.863.367-1.447,2.845-3.533,4.015-3.327,1.783.315,3.258,2.368,4.864,3.684l-.182,1.911" transform="translate(-51.95 -91.007)" fill="url(#linear-gradient)"/>
      <path id="Tracé_700" data-name="Tracé 700" d="M106.879,126.172c-2.169-2.318-4.373-3.639-4.837-5.415-.676-2.587,1.814-3.449,3.994-3.427,2.647.026,5.31,1.033,5.148,4.051-.073,1.39-2.3,2.665-4.305,4.791" transform="translate(-17.209 -19.809)" fill="url(#linear-gradient)"/>
      <path id="Tracé_701" data-name="Tracé 701" d="M435.847,407.64c5.711-1.849,10.482-.23,12.776,4.142a9.361,9.361,0,0,1-12.776-4.142" transform="translate(-73.584 -68.694)" fill="url(#linear-gradient)"/>
      <path id="Tracé_702" data-name="Tracé 702" d="M117.979,41.663c2.616,2.863,5.333,5.641,7.8,8.623.914,1.1,1.252,2.686,2.194,4.824-2.256-.37-4.321-.093-5.347-1-2.617-2.306-5.13-9.959-4.651-12.451" transform="translate(-19.908 -7.034)" fill="url(#linear-gradient)"/>
      <path id="Tracé_703" data-name="Tracé 703" d="M316.361,197.022c-2.4,1.821-3.693,3.608-4.957,3.59-2.647-.038-4.955-1.728-4.494-4.7.192-1.238,2.549-3.273,3.4-3.041,1.878.511,3.426,2.236,6.048,4.151" transform="translate(-51.805 -32.559)" fill="url(#linear-gradient)"/>
      <path id="Tracé_704" data-name="Tracé 704" d="M437.316,440.915c1.76,2.654,3.75,4.438,3.412,5.413a8.22,8.22,0,0,1-4.143,4.255c-.652.294-3.754-2.385-3.556-3.133.517-1.961,2.236-3.6,4.287-6.535" transform="translate(-73.106 -74.439)" fill="url(#linear-gradient)"/>
      <path id="Tracé_705" data-name="Tracé 705" d="M517.419,219.862h-9.36q-.219-.489-.44-.977c2.231-.976,4.437-2.011,6.7-2.912,2.546-1.014,5.125-1.951,7.721-2.831a10.565,10.565,0,0,1,3.109-.538c.183,0,.722,1.472.53,1.65a8.57,8.57,0,0,1-2.651,1.662c-1.635.634-3.46.867-4.965,1.7-.59.327-.534,1.82-.64,2.246" transform="translate(-85.701 -35.894)" fill="url(#linear-gradient)"/>
      <path id="Tracé_706" data-name="Tracé 706" d="M440.267,641.88l9.538,17.436c-4.245-.9-10.165-11.759-9.538-17.436" transform="translate(-74.322 -108.368)" fill="url(#linear-gradient)"/>
      <path id="Tracé_707" data-name="Tracé 707" d="M215.885,596.811c1.909,3.8.908,13.491-.98,15.2-.435.394-1.607.732-1.76.545-.552-.682-1.286-1.718-1.11-2.406,1.071-4.193,2.372-8.327,3.85-13.339" transform="translate(-35.793 -100.759)" fill="url(#linear-gradient)"/>
      <path id="Tracé_708" data-name="Tracé 708" d="M58.074,482.66c-2.065,1.384-4.1,2.825-6.206,4.137a76.955,76.955,0,0,1-7.38,4.241c-.871.416-2.165-.055-3.267-.121.3-.806.364-2.046.932-2.35,4.325-2.317,8.736-4.48,13.157-6.61a7.045,7.045,0,0,1,2.242-.267l.521.969" transform="translate(-6.959 -81.323)" fill="url(#linear-gradient)"/>
      <path id="Tracé_709" data-name="Tracé 709" d="M520,266.634c.938-3.477,1.745-7,2.912-10.4.278-.81,1.765-1.205,2.7-1.79.444,1.073,1.547,2.448,1.218,3.168-1.5,3.288-3.407,6.393-5.167,9.563L520,266.634" transform="translate(-87.791 -42.958)" fill="url(#linear-gradient)"/>
      <path id="Tracé_710" data-name="Tracé 710" d="M202.729,481.9c-2.531,2.1-3.957,4.187-5.449,4.235-1.228.039-3.129-2.176-3.558-3.719-.219-.783,2.038-3.052,3.383-3.251s2.953,1.342,5.625,2.735" transform="translate(-32.703 -80.894)" fill="url(#linear-gradient)"/>
      <path id="Tracé_711" data-name="Tracé 711" d="M522.487,496.965l-3.874-5.128c1.314-.8,2.959-2.527,3.867-2.2,1.578.566,2.7,2.4,4.012,3.7l-4.005,3.626" transform="translate(-87.557 -82.658)" fill="url(#linear-gradient)"/>
      <path id="Tracé_712" data-name="Tracé 712" d="M369.089,114.672c.619,1.1,2.029,2.614,1.711,3.216-.979,1.85-2.62,3.351-4,4.989-.868-1.174-2.619-2.541-2.414-3.482.387-1.769,1.9-3.292,2.947-4.918.586.065,1.173.131,1.759.2" transform="translate(-61.515 -19.327)" fill="url(#linear-gradient)"/>
      <path id="Tracé_713" data-name="Tracé 713" d="M534.88,311.086c2.19-2.972,5.283-3.105,8.573-2.1.723.22,1.685,1.319,1.64,1.95a2.668,2.668,0,0,1-1.745,1.928c-2.732.221-5.492.091-8.242.091q-.113-.934-.226-1.868" transform="translate(-90.303 -52.07)" fill="url(#linear-gradient)"/>
      <path id="Tracé_714" data-name="Tracé 714" d="M73.758,411.562c-1.8,2.656-4.141,4.438-7.663,3.807a3.262,3.262,0,0,1-2.066-1.592c-.2-.408.519-1.762,1.064-1.937,2.648-.847,5.378-1.44,8.078-2.123Z" transform="translate(-10.804 -69.172)" fill="url(#linear-gradient)"/>
      <path id="Tracé_715" data-name="Tracé 715" d="M474.657,286.522c-1.573,1-3.057,2.5-4.755,2.808-.883.158-2.144-1.8-3.234-2.8,1.5-1.127,2.88-2.6,4.57-3.229.8-.3,2.194,1.031,3.32,1.623l.1,1.6" transform="translate(-78.787 -47.822)" fill="url(#linear-gradient)"/>
      <path id="Tracé_716" data-name="Tracé 716" d="M125.053,460.21c-2.1-3-1.658-5.361,1.342-6.648.738-.317,3.026.941,3.25,1.819.9,3.509-1.489,4.527-4.591,4.829" transform="translate(-20.893 -76.566)" fill="url(#linear-gradient)"/>
      <path id="Tracé_717" data-name="Tracé 717" d="M9.332,357.3a4.918,4.918,0,0,1,.764-1.15c2.295-1.8,4.755-3,7.333-.7a2.853,2.853,0,0,1-.412,2.669c-2.645,1.517-5.358,1.9-7.684-.816" transform="translate(-1.576 -59.796)" fill="url(#linear-gradient)"/>
      <path id="Tracé_718" data-name="Tracé 718" d="M446.217,102.811a43.363,43.363,0,0,1-4.475,4.683,2.925,2.925,0,0,1-2.862-.438,2.862,2.862,0,0,1,.221-2.841,46.347,46.347,0,0,1,5.609-3.436l1.507,2.032" transform="translate(-74.048 -17.014)" fill="url(#linear-gradient)"/>
      <path id="Tracé_719" data-name="Tracé 719" d="M543.565,560.273c4.559-.744,6.2,1.674,7.062,5.246-4.408,1.358-6.79-.359-7.062-5.246" transform="translate(-91.769 -94.567)" fill="url(#linear-gradient)"/>
      <path id="Tracé_720" data-name="Tracé 720" d="M152.18,554.412l-5.545,4.058c-.612-.943-1.954-2.331-1.7-2.745a9.84,9.84,0,0,1,3.476-3.325c.479-.268,1.758.893,3.769,2.012" transform="translate(-24.464 -93.254)" fill="url(#linear-gradient)"/>
      <path id="Tracé_721" data-name="Tracé 721" d="M480.879,338.113a11.638,11.638,0,0,1-2.257,2.014,44.7,44.7,0,0,1-4.419,1.582c.032-1.1-.373-2.738.189-3.2a10.022,10.022,0,0,1,4.232-1.7c.533-.116,1.268.7,2.254,1.3" transform="translate(-80.04 -56.861)" fill="url(#linear-gradient)"/>
      <path id="Tracé_722" data-name="Tracé 722" d="M404.75,212.562c1,2.235,2.1,3.536,1.805,4.276-.512,1.275-1.893,2.2-2.91,3.274-.78-1.034-2.3-2.182-2.165-3.075.194-1.263,1.612-2.337,3.27-4.475" transform="translate(-67.78 -35.887)" fill="url(#linear-gradient)"/>
      <path id="Tracé_723" data-name="Tracé 723" d="M142.056,484.313c-1.745,1.576-2.691,2.851-3.942,3.333-.443.17-2.486-1.873-2.308-2.424a7.4,7.4,0,0,1,2.786-3.4c.29-.207,1.745,1.222,3.464,2.486" transform="translate(-22.926 -81.343)" fill="url(#linear-gradient)"/>
      <path id="Tracé_724" data-name="Tracé 724" d="M471.365,364.727l-3.6,3.125a43.7,43.7,0,0,1-3.087-3.879c-.071-.106,1.5-1.824,2.023-1.691,1.385.351,2.616,1.311,4.661,2.445" transform="translate(-78.451 -61.162)" fill="url(#linear-gradient)"/>
      <path id="Tracé_725" data-name="Tracé 725" d="M538.1,634.9l8.929,8.14-1.134,1.29-9.151-7.94L538.1,634.9" transform="translate(-90.617 -107.19)" fill="url(#linear-gradient)"/>
      <path id="Tracé_726" data-name="Tracé 726" d="M523.476,115.993l-8.778,7.2q-.579-.713-1.158-1.425l8.872-7.44,1.064,1.661" transform="translate(-86.7 -19.303)" fill="url(#linear-gradient)"/>
      <path id="Tracé_727" data-name="Tracé 727" d="M59.448,125.513c-3,.265-4.823-.659-4.842-3.631,0-.6,1.108-1.788,1.572-1.725,2.8.38,3.9,2.131,3.27,5.355" transform="translate(-9.219 -20.286)" fill="url(#linear-gradient)"/>
      <path id="Tracé_728" data-name="Tracé 728" d="M184.743,162.834c1.659-1.1,2.991-2.2,3.147-2.051a17.387,17.387,0,0,1,2.976,3.749c.121.2-1.387,1.761-1.534,1.674a53.482,53.482,0,0,1-4.59-3.372" transform="translate(-31.19 -27.143)" fill="url(#linear-gradient)"/>
      <path id="Tracé_729" data-name="Tracé 729" d="M261.639,173.214c-2.564-3.311-1.247-5.379.942-7.613,3.119,3.139,1.282,5.118-.942,7.613" transform="translate(-43.935 -27.958)" fill="url(#linear-gradient)"/>
      <path id="Tracé_730" data-name="Tracé 730" d="M554.154,249.3,562,243.518l1.3,1.843-8.088,5.53Z" transform="translate(-93.557 -41.113)" fill="url(#linear-gradient)"/>
      <path id="Tracé_731" data-name="Tracé 731" d="M230.561,159.5l-5.968-7.213c4.362.582,5.633,2.059,5.968,7.213" transform="translate(-37.918 -25.71)" fill="url(#linear-gradient)"/>
      <path id="Tracé_732" data-name="Tracé 732" d="M181.2,90.61q-1.6-4.238-3.2-8.475l1.381-.51c3.07,2.091,2.763,5.419,3.1,8.512l-1.276.472" transform="translate(-30.051 -13.781)" fill="url(#linear-gradient)"/>
      <path id="Tracé_733" data-name="Tracé 733" d="M109.59,17.5l6,11.2-1.324.723-6.05-11.282,1.376-.644" transform="translate(-18.27 -2.954)" fill="url(#linear-gradient)"/>
      <path id="Tracé_734" data-name="Tracé 734" d="M455.042,394.578c2.008.308,4.022.589,6.005,1.014a8.319,8.319,0,0,1-.16,1.961c-2.037.017-4.076-.095-6.115-.187q.135-1.394.27-2.788" transform="translate(-76.779 -66.616)" fill="url(#linear-gradient)"/>
      <path id="Tracé_735" data-name="Tracé 735" d="M483.771,279.115l-7.371,2.262-.571-1.662,7.285-2.7q.328,1.049.657,2.1" transform="translate(-80.334 -46.769)" fill="url(#linear-gradient)"/>
      <path id="Tracé_736" data-name="Tracé 736" d="M147.181,136.9q-.885-3.773-1.77-7.545l1.963-.455L149,136.452l-1.814.446" transform="translate(-24.55 -21.762)" fill="url(#linear-gradient)"/>
      <path id="Tracé_737" data-name="Tracé 737" d="M355.5,591.522c-1.476,1.174-2.38,2.44-3.168,2.374a3.27,3.27,0,0,1-2.367-2.117c-.107-.8,1.2-2.568,1.771-2.523,1.077.085,2.076,1.171,3.764,2.267" transform="translate(-59.083 -99.483)" fill="url(#linear-gradient)"/>
      <path id="Tracé_738" data-name="Tracé 738" d="M164.914,485.441c-1.743,1.361-2.621,2.547-3.609,2.647-.711.073-1.57-1.3-2.363-2.03.773-.814,1.426-2.038,2.357-2.31.717-.209,1.784.778,3.615,1.692" transform="translate(-26.834 -81.666)" fill="url(#linear-gradient)"/>
      <path id="Tracé_739" data-name="Tracé 739" d="M107.906,148.931a11.687,11.687,0,0,1-1.359.872c-1.6-1.243-3.184-2.5-4.772-3.759.4-.459,1.138-1.337,1.159-1.319,1.6,1.276,3.143,2.622,4.971,4.206" transform="translate(-17.183 -24.434)" fill="url(#linear-gradient)"/>
      <path id="Tracé_740" data-name="Tracé 740" d="M221.444,38.141q-.223-3.3-.447-6.591c3.889,1.84,2.653,4.223,2.055,6.532Z" transform="translate(-37.311 -5.327)" fill="url(#linear-gradient)"/>
      <path id="Tracé_741" data-name="Tracé 741" d="M224.734,642.677c-1.048-2.1-2.084-3.218-1.875-4,.287-1.073,1.517-1.894,2.343-2.823.567.826,1.629,1.683,1.582,2.472-.066,1.108-.958,2.166-2.05,4.351" transform="translate(-37.62 -107.351)" fill="url(#linear-gradient)"/>
      <path id="Tracé_742" data-name="Tracé 742" d="M491.342,302.98l-6.061,1.114-.372-1.691c1.637-1.931,3.659-2.327,6.083-1.115l.349,1.692" transform="translate(-81.867 -50.75)" fill="url(#linear-gradient)"/>
      <path id="Tracé_743" data-name="Tracé 743" d="M541.819,376.852c-1.12-1.253-2.355-2.321-2.22-2.536a7.988,7.988,0,0,1,2.616-2.629c.274-.161,2.035,1.264,1.933,1.572-.357,1.084-1.228,2-2.329,3.593" transform="translate(-91.098 -62.749)" fill="url(#linear-gradient)"/>
      <path id="Tracé_744" data-name="Tracé 744" d="M291.972,649.6c.868,2.208,1.662,3.354,1.643,4.485-.012.766-1.167,1.513-1.811,2.268-.683-1.086-1.688-2.106-1.927-3.281-.141-.695.93-1.635,2.095-3.472" transform="translate(-48.938 -109.671)" fill="url(#linear-gradient)"/>
      <path id="Tracé_745" data-name="Tracé 745" d="M251.225,89c-1.42-1.98-2.434-2.909-2.738-4.03-.142-.525,1.085-1.421,1.692-2.15.783.815,1.878,1.512,2.242,2.483.251.672-.507,1.721-1.2,3.7" transform="translate(-41.95 -13.982)" fill="url(#linear-gradient)"/>
      <path id="Tracé_746" data-name="Tracé 746" d="M553.188,146.464c2.417-.829,3.584-1.5,4.768-1.529.655-.017,1.338,1.032,2.009,1.6-1.041.678-2.016,1.673-3.151,1.917-.7.15-1.644-.846-3.626-1.989" transform="translate(-93.394 -24.469)" fill="url(#linear-gradient)"/>
      <path id="Tracé_747" data-name="Tracé 747" d="M242.026,590.039c.847,1.758,1.79,2.822,1.555,3.425-.41,1.051-1.547,1.82-2.379,2.707-.577-.734-1.734-1.594-1.607-2.174.246-1.123,1.214-2.087,2.43-3.959" transform="translate(-40.449 -99.616)" fill="url(#linear-gradient)"/>
      <path id="Tracé_748" data-name="Tracé 748" d="M127.037,202.094c-.782.539-2.045,1.686-2.264,1.514a6.637,6.637,0,0,1-2.234-2.935c-.14-.433,1.271-1.964,1.9-1.923,1.265.083,2.482.907,3.719,1.425q-.564.959-1.125,1.918" transform="translate(-20.686 -33.555)" fill="url(#linear-gradient)"/>
      <path id="Tracé_749" data-name="Tracé 749" d="M26.616,40.458c-1.379,1.112-2.173,2.168-3.134,2.353-.485.094-1.866-1.457-1.785-2.14.115-.981,1.194-1.849,1.863-2.764l3.056,2.551" transform="translate(-3.663 -6.4)" fill="url(#linear-gradient)"/>
      <path id="Tracé_750" data-name="Tracé 750" d="M104.776,49.1a40.34,40.34,0,0,1,3.5,3.263c.176.2-.577,1.218-.9,1.858l-4.225-3.174,1.627-1.947" transform="translate(-17.415 -8.29)" fill="url(#linear-gradient)"/>
      <path id="Tracé_751" data-name="Tracé 751" d="M238.118,0a18.463,18.463,0,0,1,2.662,3.391c.123.263-1.3,1.246-2.007,1.9A24.044,24.044,0,0,1,236.186,2.2c-.121-.2,1-1.159,1.932-2.2" transform="translate(-39.874)" fill="url(#linear-gradient)"/>
      <path id="Tracé_752" data-name="Tracé 752" d="M105.611,260.645l-4.432-4.745,1.1-1.086c2.453.588,4.216,1.888,4.46,4.763Z" transform="translate(-17.082 -43.02)" fill="url(#linear-gradient)"/>
      <path id="Tracé_753" data-name="Tracé 753" d="M583.609,339.634l8.494-2c-2.036,3.838-3.366,4.127-8.494,2" transform="translate(-98.53 -57.003)" fill="url(#linear-gradient)"/>
      <path id="Tracé_754" data-name="Tracé 754" d="M590.606,308.91a42.4,42.4,0,0,1,3.96,2.434c.143.106-.52,1.3-.81,1.982l-4.247-2.547,1.1-1.869" transform="translate(-99.526 -52.153)" fill="url(#linear-gradient)"/>
      <path id="Tracé_755" data-name="Tracé 755" d="M77.227,521.382l-2.634-4a15.994,15.994,0,0,1,1.781-1.042c.94,1.247,1.755,2.587,2.6,3.909l-1.744,1.131" transform="translate(-12.593 -87.173)" fill="url(#linear-gradient)"/>
      <path id="Tracé_756" data-name="Tracé 756" d="M337.393,188.1c-.878-1.319-1.868-2.216-1.7-2.668a11.153,11.153,0,0,1,2.085-2.707c.657.67,1.937,1.459,1.836,1.985-.194,1.014-1.167,1.88-2.225,3.39" transform="translate(-56.672 -30.849)" fill="url(#linear-gradient)"/>
      <path id="Tracé_757" data-name="Tracé 757" d="M348.184,490.952c-.456.387-1.36,1.775-2.465,1.961-2.518.422-6.4-3.872-5.943-6.727a4.348,4.348,0,0,1,2.943-2.866c2.761-.311,5.576,3.378,5.465,7.633" transform="translate(-57.358 -81.595)" fill="url(#linear-gradient)"/>
      <path id="Tracé_758" data-name="Tracé 758" d="M365.01,492.526c-1.858-1.527-3.668-2.472-4.644-3.962a15.2,15.2,0,0,1-1.8-5.617c-.083-.466,1.465-1.809,1.793-1.667,1.819.79,3.962,1.545,5.113,3.007,2.009,2.549,1.231,5.422-.459,8.239" transform="translate(-60.535 -81.252)" fill="url(#linear-gradient)"/>
    </g>
  </g>
</svg>
