<svg id="Groupe_37" data-name="Groupe 37" xmlns="http://www.w3.org/2000/svg" xmlns:xlink="http://www.w3.org/1999/xlink" width="55.976" height="55.515" viewBox="0 0 55.976 55.515">
  <defs>
    <clipPath id="clip-path">
      <rect id="Rectangle_34" data-name="Rectangle 34" width="55.976" height="55.515" fill="#f9d401"/>
    </clipPath>
  </defs>
  <g id="Groupe_36" data-name="Groupe 36" clip-path="url(#clip-path)">
    <path id="Tracé_163" data-name="Tracé 163" d="M119.5,142.312a7.481,7.481,0,1,1,9,.006,8.549,8.549,0,0,1,3.979,2.827,8.074,8.074,0,0,1,1.772,5.015c.022,4.333.011,8.666.007,13,0,.8-.339,1.13-1.141,1.13q-9.123,0-18.246,0c-.8,0-1.132-.337-1.132-1.139,0-4.314-.021-8.627.006-12.941a8.326,8.326,0,0,1,5.44-7.756c.09-.035.176-.079.313-.141m3.286,1.5a6.506,6.506,0,0,0-7.169,6.354c-.045,3.963-.012,7.926-.011,11.889a3.1,3.1,0,0,0,.033.326h16.737c0-4.236.119-8.434-.036-12.623a6.412,6.412,0,0,0-7.115-5.948Zm1.2-9.385a6.609,6.609,0,0,0-5.181,2.6.891.891,0,0,0-.171.9,5.655,5.655,0,0,0,5.377,3.975,5.574,5.574,0,0,0,5.333-4.008,1.088,1.088,0,0,0-.154-.83,6.455,6.455,0,0,0-5.2-2.635m5.188-.1a5.5,5.5,0,0,0-5.523-3.617c-2.163.113-4.472,1.844-4.785,3.59a8.459,8.459,0,0,1,10.309.027" transform="translate(-96.017 -108.776)" fill="#f9d401"/>
    <path id="Tracé_164" data-name="Tracé 164" d="M3.4,210.233a5.611,5.611,0,0,1,7.805-8.051,5.647,5.647,0,0,1,.353,8.008c.016.029.026.077.05.086a4.676,4.676,0,0,1,3.314,4.864q0,4.285,0,8.57c0,.991-.292,1.283-1.283,1.283H1.284C.292,224.994,0,224.7,0,223.711q0-4.227,0-8.453a4.745,4.745,0,0,1,3.4-5.025m2.823,1.7c-.523,0-.949,0-1.375,0a2.808,2.808,0,0,0-2.984,3q-.007,3.818,0,7.636v.527H13.047c0-2.907.035-5.779-.017-8.65a2.562,2.562,0,0,0-2.06-2.389,17.189,17.189,0,0,0-2.258-.165Zm1.24-6.533a4.526,4.526,0,0,0-3.334,1.448.843.843,0,0,0-.149.7A3.659,3.659,0,0,0,7.4,210.068a3.748,3.748,0,0,0,3.552-2.438.706.706,0,0,0-.206-.866A4.782,4.782,0,0,0,7.466,205.4m-3.08-1.1a6.716,6.716,0,0,1,6.121-.022,3.664,3.664,0,0,0-6.121.022" transform="translate(0 -169.48)" fill="#f9d401"/>
    <path id="Tracé_165" data-name="Tracé 165" d="M266.866,210.2c-2.087-3.349-1.932-6.094.443-8.156a5.582,5.582,0,0,1,7.225-.033,5.587,5.587,0,0,1,.5,8.09,15.643,15.643,0,0,1,1.746,1.091,4.3,4.3,0,0,1,1.619,3.414c.021,3.07.011,6.141.007,9.211,0,.8-.339,1.13-1.141,1.131q-6.325.005-12.651,0c-.8,0-1.129-.338-1.13-1.141q-.006-4.46,0-8.92a4.649,4.649,0,0,1,3.127-4.585l.259-.1m2.809,1.69c-.525,0-.971,0-1.416,0a2.793,2.793,0,0,0-2.912,2.892c-.009,2.623,0,5.246,0,7.869,0,.13.017.26.027.393H276.53c0-2.894.029-5.748-.014-8.6a2.582,2.582,0,0,0-2.022-2.423,17.131,17.131,0,0,0-2.306-.178Zm1.241-6.533a4.537,4.537,0,0,0-3.292,1.431.844.844,0,0,0-.169.693,3.655,3.655,0,0,0,3.458,2.543,3.744,3.744,0,0,0,3.527-2.473.673.673,0,0,0-.2-.815,4.759,4.759,0,0,0-3.322-1.378m3.092-1.108a3.6,3.6,0,0,0-6.043-.044,6.663,6.663,0,0,1,6.043.044" transform="translate(-222.433 -169.437)" fill="#f9d401"/>
    <path id="Tracé_166" data-name="Tracé 166" d="M151.667,0c.686.03.99.268,1.137.7s.267.85.406,1.273a2.8,2.8,0,0,0,1.91,1.881c.406.13.816.248,1.219.387a.937.937,0,0,1,0,1.808c-.384.134-.773.253-1.163.37a2.817,2.817,0,0,0-1.984,1.953c-.111.351-.242.7-.337,1.051a.953.953,0,0,1-1.889.026c-.1-.354-.227-.7-.336-1.052a2.828,2.828,0,0,0-1.965-1.973c-.407-.126-.816-.247-1.218-.389-.427-.151-.746-.479-.639-.915a1.528,1.528,0,0,1,.653-.849,6.725,6.725,0,0,1,1.315-.447,2.77,2.77,0,0,0,1.816-1.827A8.207,8.207,0,0,1,151.013.73a3.532,3.532,0,0,1,.654-.73m.21,6.262,1.191-1.08L151.958,4l-1.234,1.093,1.153,1.173" transform="translate(-123.92)" fill="#f9d401"/>
    <path id="Tracé_167" data-name="Tracé 167" d="M8.441,89.776c.166.18.589.425.649.739a4.015,4.015,0,0,0,3.524,3.506.85.85,0,0,1,.713.879.922.922,0,0,1-.723.938c-.386.128-.775.248-1.163.369A2.808,2.808,0,0,0,9.5,98.129q-.186.581-.369,1.163a.932.932,0,0,1-.916.753.922.922,0,0,1-.927-.737c-.118-.369-.239-.737-.351-1.108a2.84,2.84,0,0,0-2-2.008,4.665,4.665,0,0,1-1.2-.411,1.56,1.56,0,0,1-.622-.87c-.094-.409.213-.727.619-.87.438-.154.886-.281,1.327-.428A2.789,2.789,0,0,0,6.9,91.746c.14-.423.263-.851.406-1.273s.46-.655,1.132-.7m-.236,4L7.028,94.887l1.137,1.186L9.342,94.9,8.2,93.773" transform="translate(-2.608 -75.791)" fill="#f9d401"/>
    <path id="Tracé_168" data-name="Tracé 168" d="M271.418,101.817c.712.024,1.016.281,1.165.733.139.423.263.851.406,1.274a2.775,2.775,0,0,0,1.826,1.818c.312.106.625.207.942.3.526.151,1.012.344,1.037,1,.02.512-.3.811-1.067,1.038-.26.077-.515.17-.774.247a2.823,2.823,0,0,0-2.011,2,4.691,4.691,0,0,1-.412,1.2.913.913,0,0,1-1.721,0,4.749,4.749,0,0,1-.412-1.2,2.83,2.83,0,0,0-1.955-1.984c-.333-.1-.658-.237-1-.322-.524-.131-.9-.4-.9-.978.007-.55.366-.811.87-.939.375-.1.739-.234,1.106-.358a2.778,2.778,0,0,0,1.825-1.819,8.623,8.623,0,0,1,.422-1.265,3.682,3.682,0,0,1,.645-.742m.232,6.266,1.153-1.151-1.118-1.146-1.222,1.163,1.187,1.134" transform="translate(-225.028 -85.956)" fill="#f9d401"/>
  </g>
</svg>
