<svg id="Groupe_33" data-name="Groupe 33" xmlns="http://www.w3.org/2000/svg" xmlns:xlink="http://www.w3.org/1999/xlink" width="54.747" height="46.13" viewBox="0 0 54.747 46.13">
  <defs>
    <clipPath id="clip-path">
      <rect id="Rectangle_32" data-name="Rectangle 32" width="54.747" height="46.13" fill="#00c2ff"/>
    </clipPath>
  </defs>
  <g id="Groupe_32" data-name="Groupe 32" clip-path="url(#clip-path)">
    <path id="Tracé_152" data-name="Tracé 152" d="M0,157.933a.8.8,0,0,1,.805-.8c.588,0,1.175.005,1.762-.017a1.853,1.853,0,0,0,.626-.284c.014-.007.02-.03.033-.042,1.3-1.12,1.648-2.666,1.994-4.245.593-2.712,1.255-5.41,1.9-8.111a.527.527,0,0,0-.232-.668,11.9,11.9,0,0,1-5.06-8.678,26.6,26.6,0,0,1-.162-2.757.814.814,0,1,1,1.628-.009c-.011.587-.021,1.167.018,1.744.326,4.777,3.316,9.29,9.047,10.21.349.056.372.243.413.5q.671,4.194,1.348,8.386c.1.615.181,1.234.309,1.844a1.387,1.387,0,0,1-.271,1.289,3.355,3.355,0,0,0-.328.491.209.209,0,0,0,.18.315h1.934a.209.209,0,0,0,.209-.209v-10.78a.209.209,0,0,1,.209-.209c3.077,0,6.141.2,9.063-1.089a.212.212,0,0,0,.117-.252,20.719,20.719,0,0,1-.572-5.843.825.825,0,0,1,1.651.016c-.008.8-.018,1.592.016,2.381a13.146,13.146,0,0,0,.277,2.277c.73,3.279,3,4.947,6.1,5.714.081.02.162.037.246.054a.675.675,0,0,1,.549.662v.006c0,1.676-.023,3.352.012,5.027a2.291,2.291,0,0,1-.511,1.676,1.681,1.681,0,0,0-.177.254.209.209,0,0,0,.178.318H35a.209.209,0,0,0,.207-.18c.165-1.156.325-2.31.5-3.461.385-2.607.822-5.208,1.149-7.822a19.324,19.324,0,0,0-.116-6.34,7.745,7.745,0,0,0-6.758-6.133c-.85-.09-1.708-.115-2.583-.151a.8.8,0,0,1-.024-1.6,16.929,16.929,0,0,1,4.152.269,16.119,16.119,0,0,1,12.011,8.6,8.048,8.048,0,0,0,3.981,3.784c1.3.575,2.588,1.188,3.884,1.778a3.64,3.64,0,0,1-1.484,7,7.28,7.28,0,0,1-1.958-.352,32.247,32.247,0,0,1-9.47-4.954.207.207,0,0,0-.329.137l-1.285,9.215a.213.213,0,0,0,.21.242h8.731a.8.8,0,0,1,0,1.606H.8A.8.8,0,0,1,0,157.933Zm37.017-22.577-.093.1c.037.07.069.143.112.209a8.1,8.1,0,0,1,1.49,4.12c.08,1.775-.009,3.557,0,5.335a.873.873,0,0,0,.239.622A31.594,31.594,0,0,0,48.9,151.1a4.161,4.161,0,0,0,1.309.2,2,2,0,0,0,1.8-1.641,2.04,2.04,0,0,0-1.114-2.269c-1.438-.686-2.89-1.341-4.338-2.007a8.407,8.407,0,0,1-3.3-2.688c-.613-.845-1.184-1.723-1.75-2.6a14.962,14.962,0,0,0-2.889-3.549c-.51-.424-1.064-.794-1.6-1.189M17.769,156.919a.209.209,0,0,0,.21.209c1.374,0,2.71,0,4.046,0a.365.365,0,0,0,.245-.07,17.7,17.7,0,0,0,1.9-2.16,21.512,21.512,0,0,0,1.4-2.878.554.554,0,0,0-.074-.494,13.734,13.734,0,0,1-2.654-3.983.5.5,0,0,0-.39-.218c-1.334.045-2.667.116-4,.176-.154.007-.309.005-.468,0a.209.209,0,0,0-.211.209ZM5.4,156.784a.209.209,0,0,0,.164.341c.391,0,.749-.01,1.1.011a.608.608,0,0,0,.648-.408c1.265-2.409,2.519-4.825,3.841-7.2a2.906,2.906,0,0,0,.4-2.315c-.109-.392-.122-.81-.22-1.206a.564.564,0,0,0-.3-.345c-.706-.251-1.421-.475-2.15-.711a.208.208,0,0,0-.262.13c-.019.055-.037.114-.051.173-.579,2.458-1.127,4.923-1.742,7.371-.353,1.405-.423,2.928-1.428,4.161m19.357-.008a.209.209,0,0,0,.162.346,8.054,8.054,0,0,1,.925.015.988.988,0,0,0,.972-.477c1.48-1.96,2.987-3.9,4.483-5.848.046-.059.088-.121.133-.187a.21.21,0,0,0-.1-.315,9.784,9.784,0,0,1-5-3.94.212.212,0,0,0-.248-.083l-1.54.551a.21.21,0,0,0-.128.263.56.56,0,0,0,.02.053,12.1,12.1,0,0,0,2.905,3.917.505.505,0,0,1,.139.725c-.916,1.619-1.386,3.486-2.723,4.98m-12.475-4.952-.5-.083-2.7,5.078a.21.21,0,0,0,.185.309h.764c1.82,0,1.822,0,2.685-1.578a.768.768,0,0,0,.094-.449c-.168-1.094-.349-2.185-.528-3.277m16.447,4.965a.21.21,0,0,0,.166.338c.675,0,1.288,0,1.9-.006a.434.434,0,0,0,.262-.134,4.736,4.736,0,0,0,1.137-4.108.209.209,0,0,0-.375-.11l-3.091,4.021" transform="translate(0 -112.603)" fill="#00c2ff"/>
    <path id="Tracé_153" data-name="Tracé 153" d="M29.5,12.625a.567.567,0,0,1,.332.747c-.38.943-.741,1.847-1.126,2.74a.7.7,0,0,1-.444.295c-1.018.255-2.041.489-3.063.728a.208.208,0,0,0-.154.261,2.156,2.156,0,0,0,2.133,1.452c2.478.009,4.955,0,7.433,0h.027a.6.6,0,0,1,.594.594v.419a.593.593,0,0,1-.592.592H27.475a3.9,3.9,0,0,1-4.067-2.738.873.873,0,0,0-.106-.146l-.836.19a.811.811,0,0,1-.366-1.579c1.435-.336,2.852-.69,4.286-.954.812-.149,1.34-.461,1.462-1.312a.207.207,0,0,0-.13-.222c-.3-.117-.638-.248-.975-.37-1.037-.377-2.073-.755-3.114-1.12a.475.475,0,0,1-.395-.517A3.893,3.893,0,0,0,19.06,7.619H17.029a.21.21,0,0,1-.21-.209V3.091a.21.21,0,0,0-.329-.172,6.15,6.15,0,0,0-2.545,3.345,7.655,7.655,0,0,0-.318,2.1c-.035,2.744-.015,5.49-.015,8.235v.079a.54.54,0,0,1-.538.538h-.533a.534.534,0,0,1-.532-.532q0-4.117,0-8.235a7.9,7.9,0,0,1,3.71-6.939L17.885.061A.329.329,0,0,1,18.4.334v1.14a.211.211,0,0,0,.328.175l2.4-1.593a.332.332,0,0,1,.515.276c0,1.907.008,3.814-.008,5.721a.646.646,0,0,0,.382.663,5.414,5.414,0,0,1,2.729,3.721,1.008,1.008,0,0,0,.559.643c1.39.533,2.793,1.033,4.192,1.545ZM20,5.8V3.158A.209.209,0,0,0,19.661,3c-.368.3-.705.578-1.034.858a.654.654,0,0,0-.2.426c-.008.5-.005,1,0,1.514A.209.209,0,0,0,18.629,6h1.166A.209.209,0,0,0,20,5.8" transform="translate(-10.29 0)" fill="#00c2ff"/>
    <path id="Tracé_154" data-name="Tracé 154" d="M363.6,312.6h0a.77.77,0,0,1-.77.77h-1.71a.77.77,0,1,1,0-1.539h1.71a.77.77,0,0,1,.77.77" transform="translate(-308.85 -267.264)" fill="#00c2ff"/>
    <path id="Tracé_155" data-name="Tracé 155" d="M68.263,76.8h0a.77.77,0,0,1,.77-.77h.009a.77.77,0,0,1,0,1.541h-.009a.77.77,0,0,1-.77-.77" transform="translate(-58.507 -65.167)" fill="#00c2ff"/>
    <path id="Tracé_156" data-name="Tracé 156" d="M114.094,156.237h0a.764.764,0,0,1-.764-.764v-.029a.764.764,0,0,1,1.527,0v.029a.764.764,0,0,1-.764.764" transform="translate(-97.134 -132.575)" fill="#00c2ff"/>
    <path id="Tracé_157" data-name="Tracé 157" d="M135.688,155.462h0a.767.767,0,0,1,.767-.767h.009a.767.767,0,0,1,0,1.533h-.009a.767.767,0,0,1-.767-.767" transform="translate(-116.297 -132.587)" fill="#00c2ff"/>
    <path id="Tracé_158" data-name="Tracé 158" d="M339.426,312.6h0a.769.769,0,0,1-1.538,0h0a.769.769,0,0,1,1.538,0" transform="translate(-289.6 -267.266)" fill="#00c2ff"/>
  </g>
</svg>
