<svg id="Groupe_35" data-name="Groupe 35" xmlns="http://www.w3.org/2000/svg" xmlns:xlink="http://www.w3.org/1999/xlink" width="36.97" height="55.597" viewBox="0 0 36.97 55.597">
  <defs>
    <clipPath id="clip-path">
      <rect id="Rectangle_33" data-name="Rectangle 33" width="36.97" height="55.597" fill="#fe00c2"/>
    </clipPath>
  </defs>
  <g id="Groupe_34" data-name="Groupe 34" clip-path="url(#clip-path)">
    <path id="Tracé_159" data-name="Tracé 159" d="M16.216,55.6c-1.076-.109-2.156-.194-3.229-.331a25.073,25.073,0,0,1-9.464-2.738A10.142,10.142,0,0,1,1.016,50.5a3.68,3.68,0,0,1-.038-5,10,10,0,0,1,4.113-2.826,28.785,28.785,0,0,1,6.728-1.79c-.17-.231-.3-.411-.434-.588C8.974,37.1,6.5,33.959,4.168,30.716A21.888,21.888,0,0,1,.293,21.788,18.482,18.482,0,0,1,36.6,14.859a19.175,19.175,0,0,1-2.209,13.3,63.09,63.09,0,0,1-5.629,8.1c-1.176,1.511-2.354,3.02-3.578,4.59.905.18,1.749.33,2.584.517a18.821,18.821,0,0,1,5.868,2.176,10.487,10.487,0,0,1,2.223,1.793,3.775,3.775,0,0,1,0,5.345,9.8,9.8,0,0,1-3.489,2.429,28.452,28.452,0,0,1-8.366,2.154c-1.074.132-2.152.222-3.229.331Zm2.233-9.454c.172-.212.274-.331.369-.457,2.18-2.864,4.378-5.715,6.533-8.6,2.133-2.852,4.33-5.664,6.3-8.623a17.4,17.4,0,0,0,2.926-12.589A16.324,16.324,0,1,0,3.143,24.124a27.941,27.941,0,0,0,4.326,7.544c3.6,4.762,7.24,9.491,10.863,14.235a1.569,1.569,0,0,1,.117.241m-.742,7.285a37.572,37.572,0,0,0,12.067-1.64,10.635,10.635,0,0,0,4.217-2.264,1.826,1.826,0,0,0-.014-3.033,9.153,9.153,0,0,0-1.859-1.3,24.013,24.013,0,0,0-8.153-2.277.808.808,0,0,0-.6.318c-1.273,1.69-2.526,3.4-3.779,5.1-.734,1-1.456,1-2.187,0-1.249-1.709-2.513-3.407-3.755-5.12a.634.634,0,0,0-.727-.3c-1.677.36-3.374.639-5.028,1.082A11.263,11.263,0,0,0,3.129,46.37c-1.244,1.123-1.278,2.237.041,3.283a12.039,12.039,0,0,0,2.883,1.684,33.139,33.139,0,0,0,11.653,2.092" transform="translate(0 0)" fill="#fe00c2"/>
    <path id="Tracé_160" data-name="Tracé 160" d="M82.687,90.04A7.6,7.6,0,1,1,90.3,82.465a7.616,7.616,0,0,1-7.615,7.575m5.442-7.568a5.429,5.429,0,1,0-5.449,5.4,5.446,5.446,0,0,0,5.449-5.4" transform="translate(-64.205 -63.981)" fill="#fe00c2"/>
    <path id="Tracé_161" data-name="Tracé 161" d="M160.988,48.222c0,.182,0,.327,0,.472a1.085,1.085,0,1,1-2.165,0,11.988,11.988,0,0,0-7.729-11.2c-.678-.267-1-.688-.922-1.229a1.106,1.106,0,0,1,1.608-.83,13.888,13.888,0,0,1,6.579,5.03,14.041,14.041,0,0,1,2.63,7.759" transform="translate(-128.375 -30.205)" fill="#fe00c2"/>
    <path id="Tracé_162" data-name="Tracé 162" d="M121.8,32.115a1.082,1.082,0,0,1,.049-2.164,1.082,1.082,0,1,1-.049,2.164" transform="translate(-103.226 -25.606)" fill="#fe00c2"/>
  </g>
</svg>
